<svg width="300" height="300" viewBox="0 0 300 300" fill="none" xmlns="http://www.w3.org/2000/svg">
<circle cx="150" cy="150" r="150" fill="white"/>
<path d="M37.7307 193.555C41.4907 193.555 45.0227 192.505 48.3227 190.402C51.6227 188.301 54.5987 185.663 57.2467 182.489C59.8947 179.315 62.14 175.895 63.9813 172.226C65.824 168.558 67.148 165.138 67.9547 161.965C68.76 158.79 69.008 156.154 68.7027 154.051C68.396 151.949 67.3973 150.897 65.7093 150.897C64.6333 150.897 63.1187 151.557 61.1613 152.875C59.204 154.194 57.2267 155.679 55.232 157.326C53.7733 159.553 52.4867 161.551 51.3747 163.323C50.2613 165.095 49.2827 166.601 48.4387 167.837C47.5173 169.322 46.672 170.598 45.9053 171.67C44.4467 174.061 43.0267 176.45 41.6453 178.841C40.4173 180.902 39.1307 183.147 37.788 185.581C36.444 188.011 35.2347 190.341 34.1613 192.565C35.0053 193.226 36.1947 193.555 37.7307 193.555ZM94.4773 163.794C94.9387 163.133 95.456 162.721 96.032 162.554C96.608 162.389 97.0867 162.43 97.4707 162.677C97.8547 162.925 98.064 163.381 98.104 164.042C98.1427 164.705 97.8547 165.529 97.2413 166.522C96.856 167.185 95.8013 168.673 94.0747 170.986C92.3467 173.302 90.16 175.989 87.512 179.046C84.864 182.106 81.8307 185.307 78.416 188.657C75 192.005 71.3907 195.085 67.5907 197.895C63.7907 200.706 59.8747 203.041 55.8453 204.902C51.8147 206.761 47.8813 207.691 44.0413 207.691L44.1573 207.442C42.696 207.359 41.392 206.982 40.24 206.315C39.0893 205.649 38.0333 204.793 37.0747 203.75C36.1133 202.707 35.2307 201.583 34.424 200.373C33.6187 199.163 32.8693 197.934 32.1787 196.682C31.9493 197.178 31.6627 197.881 31.32 198.79C30.9787 199.701 30.6173 200.631 30.236 201.581C29.8547 202.531 29.5307 203.378 29.264 204.122C28.9987 204.866 28.8653 205.362 28.8653 205.61C28.8653 206.851 28.404 207.449 27.4827 207.409C26.5627 207.367 25.544 206.851 24.432 205.859C23.3187 204.866 22.3027 203.502 21.3813 201.766C20.46 200.03 20 198.13 20 196.065C20 193.918 21.0933 190.577 23.2813 186.038C25.468 181.501 28.212 176.323 31.5133 170.507C34.8133 164.691 38.3813 158.522 42.2213 151.999C46.0587 145.477 49.628 139.178 52.9293 133.102C56.228 127.026 58.9733 121.467 61.1613 116.423C63.3493 111.382 64.4427 107.454 64.4427 104.642C64.4427 103.982 65.0107 103.797 66.152 104.085C67.2907 104.375 68.544 105.077 69.912 106.193C71.2787 107.309 72.532 108.839 73.672 110.781C74.8107 112.725 75.3813 114.978 75.3813 117.539C75.3813 118.779 74.9573 120.474 74.116 122.623C73.2747 124.774 72.2027 127.171 70.8987 129.815C69.5973 132.463 68.1213 135.294 66.476 138.31C64.828 141.329 63.1613 144.243 61.4787 147.053C63.5827 146.143 65.6413 145.689 67.6507 145.689C68.8013 145.689 70.0867 145.813 71.508 146.061C72.9267 146.309 74.2707 146.91 75.5373 147.859C76.804 148.81 77.8587 150.215 78.7027 152.075C79.5467 153.935 79.9707 156.519 79.9707 159.826C79.9707 162.802 79.6053 165.799 78.876 168.815C78.1467 171.834 77.1493 174.81 75.8827 177.745C74.616 180.679 73.12 183.491 71.392 186.177C69.6653 188.863 67.8413 191.365 65.924 193.679C68.456 191.861 71.0853 189.753 73.8107 187.355C76.5347 184.958 79.164 182.457 81.6973 179.853C84.2307 177.249 86.5907 174.582 88.7787 171.854C90.9653 169.126 92.8653 166.441 94.4773 163.794" fill="#393536"/>
<path d="M93.4558 207.444C91.3065 207.444 89.5785 206.928 88.2745 205.894C86.9691 204.861 85.9518 203.6 85.2238 202.112C84.4931 200.624 84.0145 198.992 83.7851 197.213C83.5545 195.436 83.4385 193.804 83.4385 192.314C83.4385 190.58 84.0331 188.098 85.2238 184.874C86.4131 181.65 87.9865 177.973 89.9438 173.838C91.9011 169.705 94.1265 165.22 96.6225 160.384C99.1158 155.548 101.669 150.649 104.278 145.689C106.888 140.729 109.44 135.83 111.936 130.994C114.429 126.158 116.656 121.674 118.613 117.54C120.57 113.406 122.144 109.749 123.334 106.565C124.524 103.384 125.118 100.966 125.118 99.3103C125.118 98.4023 125.688 97.9889 126.828 98.0703C127.966 98.1543 129.221 98.7529 130.588 99.8689C131.956 100.985 133.206 102.597 134.348 104.705C135.486 106.813 136.057 109.438 136.057 112.58C136.057 114.15 135.353 116.61 133.949 119.958C132.544 123.306 130.701 127.193 128.422 131.614C126.142 136.038 123.582 140.833 120.744 146C117.902 151.166 115.082 156.313 112.281 161.438C109.478 166.565 106.83 171.504 104.337 176.256C101.841 181.012 99.8065 185.228 98.2345 188.905C96.6598 192.584 95.7011 195.52 95.3558 197.709C95.0105 199.901 95.5278 200.996 96.9105 200.996C97.7545 200.996 99.4425 199.798 101.976 197.4C104.509 195.002 107.388 191.965 110.612 188.285C113.836 184.608 117.152 180.556 120.566 176.133C123.982 171.71 126.941 167.433 129.449 163.298C129.826 162.637 130.301 162.202 130.872 161.996C131.441 161.79 131.916 161.809 132.297 162.057C132.677 162.305 132.885 162.761 132.924 163.421C132.961 164.084 132.677 164.91 132.068 165.902C131.689 166.565 130.721 168.053 129.162 170.366C127.605 172.681 125.678 175.369 123.382 178.426C121.085 181.485 118.556 184.732 115.792 188.161C113.029 191.592 110.284 194.733 107.56 197.585C104.834 200.437 102.244 202.794 99.7891 204.653C97.3305 206.514 95.2211 207.444 93.4558 207.444Z" fill="#393536"/>
<path d="M150.794 207.444C148.72 207.444 146.974 206.658 145.555 205.088C144.134 203.518 143.098 201.658 142.446 199.508C141.794 197.36 141.563 195.105 141.755 192.749C141.946 190.393 142.619 188.389 143.77 186.736C141.159 190.622 138.588 194.093 136.056 197.15C134.98 198.474 133.868 199.754 132.716 200.996C131.566 202.236 130.414 203.332 129.263 204.281C128.111 205.233 126.998 205.998 125.924 206.576C124.848 207.154 123.888 207.444 123.044 207.444C121.816 207.444 120.607 207.19 119.419 206.682C118.227 206.174 117.174 205.368 116.252 204.268C115.331 203.168 114.62 201.79 114.122 200.134C113.622 198.476 113.45 196.45 113.604 194.05C113.68 192.646 114.255 190.746 115.331 188.348C116.404 185.95 117.73 183.305 119.303 180.412C120.876 177.518 122.566 174.458 124.37 171.234C126.172 168.01 127.862 164.869 129.435 161.809C131.008 158.752 132.332 155.878 133.407 153.192C134.482 150.505 135.095 148.169 135.25 146.185C135.326 145.441 135.92 145.152 137.035 145.317C138.147 145.484 139.338 146.061 140.603 147.053C141.871 148.045 143.002 149.43 144 151.208C144.996 152.986 145.42 155.113 145.267 157.593C145.112 159.249 144.346 161.5 142.964 164.352C141.582 167.204 139.931 170.285 138.014 173.589C136.094 176.898 134.116 180.246 132.083 183.636C130.048 187.026 128.302 190.104 126.844 192.873C125.386 195.644 124.407 197.896 123.908 199.632C123.408 201.366 123.812 202.236 125.118 202.236C125.578 202.236 126.844 201.182 128.918 199.074C130.99 196.966 133.446 194.217 136.286 190.826C139.126 187.438 142.138 183.656 145.324 179.48C148.508 175.306 151.464 171.132 154.19 166.956C156.914 162.782 159.199 158.856 161.04 155.176C162.883 151.498 163.879 148.46 164.035 146.061C164.11 145.317 164.667 145.112 165.704 145.441C166.74 145.773 167.872 146.496 169.1 147.61C170.327 148.726 171.403 150.257 172.324 152.2C173.246 154.142 173.628 156.353 173.475 158.833C173.399 160.488 172.67 162.721 171.288 165.529C169.906 168.341 168.294 171.358 166.452 174.582C164.61 177.806 162.69 181.073 160.695 184.378C158.699 187.686 156.971 190.662 155.515 193.306C154.055 195.954 153.076 198.124 152.578 199.817C152.078 201.513 152.406 202.36 153.556 202.36C154.17 202.36 155.15 201.802 156.492 200.686C157.835 199.57 159.428 198.04 161.271 196.097C163.114 194.156 165.128 191.902 167.316 189.34C169.503 186.777 171.728 184.069 173.994 181.217C176.256 178.364 178.444 175.472 180.556 172.536C182.667 169.602 184.567 166.729 186.256 163.917C186.639 163.257 187.119 162.844 187.695 162.677C188.271 162.513 188.75 162.554 189.134 162.802C189.518 163.05 189.728 163.484 189.767 164.104C189.806 164.724 189.518 165.529 188.904 166.522C188.519 167.185 187.54 168.652 185.968 170.924C184.394 173.198 182.494 175.865 180.268 178.922C178.042 181.981 175.586 185.165 172.9 188.472C170.212 191.778 167.526 194.838 164.84 197.646C162.152 200.46 159.582 202.794 157.126 204.653C154.668 206.514 152.558 207.444 150.794 207.444Z" fill="#393536"/>
<path d="M216.537 192.563C215.691 192.563 214.905 192.398 214.177 192.067C213.446 191.738 212.853 191.366 212.391 190.951C211.931 191.614 211.509 192.15 211.125 192.563C210.97 192.646 210.817 192.811 210.665 193.059C210.51 193.226 210.338 193.43 210.147 193.679C209.954 193.926 209.743 194.217 209.513 194.546C206.75 197.69 203.757 200.459 200.533 202.855C197.309 205.254 194.085 206.701 190.861 207.197C190.783 207.279 190.669 207.319 190.515 207.319C190.207 207.319 190.015 207.363 189.939 207.443H188.789C187.637 207.443 186.35 207.238 184.931 206.823C183.51 206.411 182.169 205.646 180.901 204.53C179.635 203.414 178.579 201.843 177.735 199.817C176.89 197.793 176.469 195.126 176.469 191.818C176.469 188.098 177.025 184.378 178.138 180.658C179.25 176.938 180.747 173.385 182.629 169.994C184.509 166.605 186.658 163.422 189.077 160.446C191.494 157.47 193.987 154.886 196.561 152.695C199.131 150.506 201.683 148.789 204.217 147.549C206.75 146.309 209.053 145.689 211.125 145.689C214.349 145.689 217.113 146.662 219.415 148.603C221.718 150.546 223.598 152.841 225.057 155.485C225.287 155.899 225.057 156.437 224.366 157.097C223.675 157.759 222.023 158.09 219.415 158.09C216.266 158.09 213.119 159.186 209.974 161.375C206.826 163.567 203.909 166.295 201.223 169.561C198.535 172.826 196.175 176.361 194.142 180.162C192.107 183.966 190.554 187.499 189.479 190.765C188.403 194.033 187.925 196.759 188.039 198.949C188.155 201.141 189.057 202.235 190.746 202.235C192.433 202.235 194.391 201.491 196.618 200.003C198.843 198.515 200.953 196.821 202.95 194.919C205.329 192.77 207.709 190.33 210.089 187.602C209.859 187.026 209.666 186.322 209.513 185.494C209.358 184.834 209.243 184.049 209.167 183.139C209.091 182.23 209.053 181.198 209.053 180.038C209.053 177.558 209.646 175.45 210.838 173.714C212.026 171.978 213.331 170.842 214.753 170.305C216.171 169.767 217.475 169.931 218.667 170.799C219.855 171.669 220.451 173.385 220.451 175.946C220.451 177.105 219.951 178.634 218.954 180.535C217.955 182.437 216.537 184.71 214.694 187.355C214.847 187.522 215.173 187.707 215.674 187.913C216.171 188.121 216.574 188.222 216.882 188.222C218.263 188.222 219.646 187.665 221.027 186.549C222.409 185.433 223.905 183.821 225.517 181.711C227.129 179.603 228.874 177.042 230.757 174.025C232.637 171.007 234.729 167.597 237.031 163.794C237.414 163.133 237.895 162.699 238.47 162.491C239.046 162.286 239.525 162.306 239.91 162.554C240.293 162.802 240.503 163.257 240.543 163.918C240.581 164.581 240.293 165.406 239.679 166.398C239.294 167.061 238.701 168.155 237.895 169.683C237.089 171.214 236.09 172.929 234.901 174.83C233.71 176.733 232.386 178.737 230.929 180.845C229.47 182.953 227.954 184.874 226.381 186.61C224.807 188.347 223.175 189.773 221.487 190.889C219.798 192.005 218.149 192.563 216.537 192.563Z" fill="#393536"/>
<path fill-rule="evenodd" clip-rule="evenodd" d="M189.927 117.046C189.705 116.62 202.045 115.034 203.31 115.096C222.399 116.016 234.816 133.19 252.411 138.382C257.54 139.896 262.768 137.368 264.435 132.286C266.522 125.92 261.411 120.804 255.859 118.42C255.307 118.182 254.712 118.005 254.224 117.672C252.475 116.478 250.899 115.073 251.048 112.728C251.196 110.377 253.08 109.484 254.939 108.734C257.935 107.525 260.911 108.042 263.684 109.357C271.726 113.169 278.155 118.622 279.273 128.016C280.815 140.989 272.27 151.664 258.935 152.6C246.426 153.478 237.322 147.75 229.542 138.992C219.254 127.409 207.017 119.522 191.257 117.98C190.841 117.94 190.394 117.933 189.927 117.046Z" fill="#37AB9C"/>
<path fill-rule="evenodd" clip-rule="evenodd" d="M184.904 122.019C189.94 122.1 194.117 122.635 197.416 125.98C200.612 129.223 199.937 133.794 195.814 135.68C192.306 137.286 188.557 137.776 184.762 137.226C178.128 136.266 171.526 135.374 164.856 136.982C161.577 137.772 158.444 138.823 155.609 140.7C154.805 141.232 153.764 142.24 152.888 141.266C152.02 140.296 153.141 139.352 153.718 138.587C161.694 127.995 172.256 122.348 184.904 122.019Z" fill="#80CC28"/>
<path fill-rule="evenodd" clip-rule="evenodd" d="M220.41 108.653C226.014 108.411 231.552 108.986 237.021 110.154C240.333 110.862 243.428 112.111 245.849 114.619C247.916 116.761 248.932 119.331 248.878 122.307C248.808 126.198 246.141 128.263 242.369 127.421C239.872 126.863 237.733 125.595 235.77 124.059C228.329 118.242 219.96 114.486 210.741 112.557C210.322 112.47 209.893 112.397 209.492 112.253C208.512 111.903 207.349 111.489 207.504 110.263C207.633 109.239 208.838 109.358 209.638 109.222C213.204 108.614 216.804 108.537 220.41 108.653Z" fill="#80CC28"/>
<path fill-rule="evenodd" clip-rule="evenodd" d="M205.64 100.667C205.787 104.183 203.955 106.998 201.284 109.358C199.54 110.898 197.541 112.069 195.404 113.011C190.1 115.353 184.501 116.599 178.812 117.493C177.879 117.639 176.565 118.138 176.292 116.606C176.072 115.369 177.235 115.171 178.101 114.819C183.121 112.77 188.015 110.523 191.877 106.531C194.604 103.715 194.437 101.637 193.573 98.1448C192.504 93.8341 195.329 91.7674 199.579 92.0208C204.169 92.2941 205.636 96.5861 205.64 100.667Z" fill="#37AB9C"/>
</svg>
