<svg width="191" height="100" viewBox="0 0 191 100" fill="none" xmlns="http://www.w3.org/2000/svg">
<path d="M17.4237 74.2363C20.1717 74.2363 22.7531 73.4683 25.1651 71.931C27.5757 70.395 29.7504 68.4683 31.6864 66.1483C33.6224 63.8283 35.2637 61.3283 36.6091 58.6483C37.9557 55.967 38.9237 53.467 39.5131 51.1483C40.1011 48.827 40.2837 46.9003 40.0597 45.3643C39.8357 43.827 39.1051 43.059 37.8717 43.059C37.0851 43.059 35.9784 43.5416 34.5477 44.5043C33.1171 45.4696 31.6717 46.5536 30.2144 47.7576C29.1477 49.3843 28.2077 50.8456 27.3957 52.1403C26.5811 53.435 25.8651 54.5363 25.2491 55.4403C24.5757 56.5256 23.9571 57.4576 23.3971 58.2416C22.3331 59.987 21.2931 61.735 20.2851 63.4816C19.3864 64.987 18.4464 66.6296 17.4651 68.407C16.4837 70.1843 15.5997 71.8856 14.8144 73.5123C15.4304 73.995 16.2997 74.2363 17.4237 74.2363ZM58.8971 52.4856C59.2331 52.0003 59.6131 51.7003 60.0331 51.579C60.4544 51.4576 60.8037 51.487 61.0851 51.667C61.3651 51.8496 61.5184 52.183 61.5477 52.6643C61.5757 53.151 61.3651 53.7536 60.9171 54.479C60.6357 54.963 59.8651 56.0496 58.6037 57.7416C57.3397 59.4323 55.7411 61.3976 53.8064 63.6323C51.8717 65.8683 49.6544 68.2083 47.1584 70.6563C44.6624 73.103 42.0237 75.355 39.2464 77.4083C36.4691 79.463 33.6077 81.1683 30.6637 82.5296C27.7171 83.8883 24.8411 84.567 22.0357 84.567L22.1197 84.3856C21.0531 84.3243 20.0984 84.0496 19.2571 83.563C18.4144 83.075 17.6437 82.4483 16.9437 81.6883C16.2411 80.9256 15.5957 80.103 15.0064 79.219C14.4171 78.335 13.8704 77.4363 13.3651 76.5216C13.1971 76.883 12.9877 77.3976 12.7371 78.0616C12.4891 78.7283 12.2237 79.4083 11.9464 80.1003C11.6664 80.7976 11.4304 81.4163 11.2357 81.959C11.0411 82.503 10.9437 82.867 10.9437 83.0456C10.9437 83.9536 10.6064 84.3896 9.93441 84.3616C9.25975 84.331 8.51575 83.9536 7.70375 83.2283C6.89041 82.503 6.14641 81.5056 5.47308 80.2376C4.80108 78.9696 4.46375 77.5803 4.46375 76.0696C4.46375 74.5016 5.26375 72.059 6.86241 68.743C8.45975 65.427 10.4651 61.643 12.8784 57.391C15.2891 53.1403 17.8984 48.631 20.7051 43.8643C23.5091 39.0976 26.1184 34.4936 28.5304 30.0523C30.9424 25.6123 32.9491 21.5483 34.5477 17.863C36.1464 14.1776 36.9464 11.3083 36.9464 9.25229C36.9464 8.76963 37.3611 8.63363 38.1944 8.84563C39.0277 9.05763 39.9437 9.56962 40.9424 10.3856C41.9424 11.2016 42.8571 12.3203 43.6904 13.739C44.5237 15.159 44.9411 16.807 44.9411 18.679C44.9411 19.5843 44.6304 20.823 44.0157 22.395C43.3997 23.9656 42.6184 25.7176 41.6651 27.651C40.7131 29.5856 39.6344 31.6536 38.4317 33.8603C37.2277 36.0656 36.0091 38.1963 34.7797 40.2496C36.3171 39.5856 37.8211 39.2523 39.2904 39.2523C40.1317 39.2523 41.0691 39.343 42.1091 39.5243C43.1464 39.7056 44.1277 40.1443 45.0557 40.8376C45.9811 41.5336 46.7517 42.5603 47.3677 43.9203C47.9851 45.279 48.2944 47.1683 48.2944 49.5843C48.2944 51.7603 48.0277 53.9496 47.4957 56.1536C46.9597 58.3616 46.2317 60.5363 45.3064 62.6803C44.3824 64.8243 43.2864 66.8803 42.0251 68.843C40.7637 70.8083 39.4291 72.6363 38.0277 74.3256C39.8797 72.9976 41.8011 71.4576 43.7917 69.7056C45.7837 67.9523 47.7051 66.1243 49.5571 64.2203C51.4077 62.319 53.1331 60.3696 54.7317 58.375C56.3317 56.3803 57.7197 54.419 58.8971 52.4856" fill="white"/>
<path d="M58.3326 84.386C56.7619 84.386 55.4992 84.01 54.5459 83.254C53.5899 82.498 52.8486 81.578 52.3152 80.49C51.7819 79.402 51.4326 78.2087 51.2632 76.91C51.0952 75.61 51.0126 74.4167 51.0126 73.3287C51.0126 72.0607 51.4459 70.2473 52.3152 67.8913C53.1859 65.5353 54.3352 62.8487 55.7659 59.8247C57.1966 56.8047 58.8232 53.526 60.6459 49.9913C62.4699 46.458 64.3352 42.8767 66.2432 39.2513C68.1486 35.6273 70.0152 32.0473 71.8392 28.5127C73.6606 24.9767 75.2886 21.7007 76.7206 18.6793C78.1499 15.658 79.2992 12.9847 80.1699 10.658C81.0379 8.33266 81.4739 6.56466 81.4739 5.35533C81.4739 4.69133 81.8899 4.38999 82.7232 4.44866C83.5552 4.50999 84.4712 4.94733 85.4712 5.76333C86.4712 6.57933 87.3859 7.75799 88.2192 9.29799C89.0512 10.8393 89.4686 12.758 89.4686 15.0527C89.4686 16.202 88.9552 17.998 87.9272 20.446C86.9006 22.8927 85.5539 25.734 83.8872 28.966C82.2219 32.198 80.3512 35.7033 78.2766 39.478C76.1992 43.2553 74.1379 47.0167 72.0899 50.762C70.0432 54.51 68.1072 58.1193 66.2859 61.5927C64.4606 65.0687 62.9739 68.1487 61.8246 70.8367C60.6752 73.526 59.9726 75.6713 59.7219 77.2713C59.4686 78.874 59.8472 79.674 60.8579 79.674C61.4739 79.674 62.7072 78.7993 64.5592 77.046C66.4126 75.294 68.5152 73.074 70.8712 70.3833C73.2272 67.6953 75.6512 64.7353 78.1472 61.502C80.6419 58.27 82.8059 55.1433 84.6392 52.122C84.9152 51.6393 85.2619 51.3207 85.6792 51.17C86.0939 51.0207 86.4419 51.034 86.7206 51.2153C86.9979 51.3967 87.1499 51.7287 87.1792 52.2113C87.2046 52.6953 86.9979 53.3007 86.5539 54.0247C86.2766 54.51 85.5686 55.5967 84.4299 57.2887C83.2912 58.9793 81.8832 60.9447 80.2046 63.1793C78.5272 65.414 76.6779 67.7873 74.6579 70.294C72.6379 72.802 70.6312 75.0967 68.6392 77.182C66.6486 79.266 64.7552 80.9887 62.9619 82.3473C61.1646 83.7073 59.6232 84.386 58.3326 84.386Z" fill="white"/>
<path d="M100.421 84.386C98.9051 84.386 97.6277 83.8127 96.5917 82.6647C95.5531 81.518 94.7944 80.158 94.3184 78.586C93.8411 77.0167 93.6731 75.3687 93.8144 73.6473C93.9531 71.9247 94.4464 70.4607 95.2864 69.2513C93.3784 72.0913 91.5011 74.63 89.6491 76.8633C88.8624 77.8313 88.0491 78.7673 87.2077 79.674C86.3664 80.5807 85.5251 81.3807 84.6837 82.0753C83.8424 82.77 83.0277 83.33 82.2437 83.7513C81.4571 84.1753 80.7557 84.386 80.1384 84.386C79.2411 84.386 78.3571 84.2007 77.4904 83.83C76.6171 83.4593 75.8477 82.87 75.1744 82.066C74.5024 81.2607 73.9824 80.254 73.6184 79.0433C73.2531 77.8327 73.1264 76.3527 73.2397 74.598C73.2944 73.5727 73.7157 72.1833 74.5024 70.43C75.2864 68.678 76.2544 66.746 77.4051 64.63C78.5544 62.5153 79.7877 60.278 81.1091 57.922C82.4251 55.566 83.6611 53.27 84.8104 51.034C85.9584 48.8007 86.9277 46.6993 87.7131 44.7353C88.4984 42.7727 88.9477 41.0647 89.0597 39.6153C89.1157 39.0713 89.5504 38.8593 90.3637 38.9793C91.1757 39.102 92.0477 39.5247 92.9731 40.2487C93.8971 40.974 94.7264 41.986 95.4544 43.286C96.1837 44.5847 96.4931 46.1393 96.3811 47.9527C96.2677 49.162 95.7077 50.8073 94.6971 52.8913C93.6877 54.9767 92.4811 57.2287 91.0797 59.6433C89.6757 62.062 88.2317 64.5087 86.7451 66.986C85.2597 69.4647 83.9824 71.714 82.9157 73.738C81.8504 75.762 81.1344 77.4087 80.7717 78.6767C80.4051 79.946 80.7011 80.5807 81.6544 80.5807C81.9917 80.5807 82.9157 79.81 84.4317 78.2687C85.9464 76.7287 87.7411 74.7193 89.8171 72.242C91.8931 69.7647 94.0944 67.0007 96.4224 63.9487C98.7491 60.8993 100.909 57.8473 102.902 54.7953C104.893 51.746 106.562 48.874 107.909 46.186C109.256 43.498 109.985 41.2767 110.097 39.5247C110.153 38.9793 110.56 38.83 111.317 39.0713C112.074 39.3127 112.902 39.842 113.8 40.6567C114.697 41.4713 115.484 42.59 116.157 44.0113C116.829 45.43 117.109 47.046 116.998 48.858C116.942 50.0687 116.408 51.6993 115.398 53.7527C114.389 55.8073 113.212 58.014 111.864 60.3687C110.517 62.726 109.116 65.1127 107.657 67.5287C106.197 69.946 104.936 72.122 103.87 74.054C102.804 75.9887 102.088 77.5753 101.725 78.8127C101.358 80.0513 101.6 80.67 102.441 80.67C102.888 80.67 103.604 80.2633 104.585 79.4473C105.566 78.6327 106.73 77.514 108.077 76.094C109.424 74.6753 110.896 73.0273 112.496 71.154C114.094 69.282 115.722 67.302 117.377 65.218C119.03 63.134 120.629 61.0193 122.173 58.874C123.716 56.73 125.104 54.63 126.337 52.5753C126.617 52.0913 126.97 51.79 127.392 51.6673C127.812 51.5473 128.162 51.5793 128.442 51.7593C128.724 51.9407 128.877 52.258 128.905 52.7113C128.933 53.1633 128.724 53.7527 128.274 54.478C127.992 54.9633 127.278 56.034 126.129 57.6953C124.977 59.358 123.59 61.306 121.962 63.542C120.336 65.7767 118.541 68.1033 116.577 70.5207C114.613 72.9367 112.649 75.174 110.686 77.226C108.722 79.282 106.842 80.9887 105.048 82.3473C103.253 83.7073 101.709 84.386 100.421 84.386Z" fill="white"/>
<path d="M148.652 73.511C148.033 73.511 147.458 73.3896 146.928 73.1496C146.393 72.9083 145.958 72.6363 145.622 72.3323C145.286 72.8163 144.976 73.2083 144.696 73.511C144.582 73.5723 144.472 73.6923 144.36 73.8736C144.246 73.995 144.121 74.1456 143.981 74.3256C143.841 74.507 143.686 74.719 143.518 74.9603C141.5 77.259 139.31 79.2816 136.956 81.0336C134.598 82.7856 132.241 83.843 129.886 84.2056C129.83 84.2656 129.745 84.2963 129.633 84.2963C129.409 84.2963 129.269 84.327 129.213 84.3856H128.372C127.529 84.3856 126.589 84.2363 125.552 83.9336C124.513 83.6323 123.533 83.0723 122.606 82.2576C121.681 81.4403 120.909 80.2936 120.292 78.8136C119.676 77.3323 119.368 75.383 119.368 72.967C119.368 70.2483 119.773 67.5296 120.588 64.811C121.401 62.0923 122.494 59.4936 123.869 57.0163C125.242 54.539 126.814 52.211 128.581 50.0376C130.349 47.863 132.172 45.975 134.052 44.3723C135.93 42.7723 137.796 41.5176 139.646 40.611C141.5 39.7056 143.181 39.2523 144.696 39.2523C147.053 39.2523 149.072 39.963 150.754 41.3816C152.438 42.803 153.812 44.479 154.88 46.4123C155.046 46.715 154.88 47.107 154.374 47.591C153.869 48.075 152.662 48.3163 150.754 48.3163C148.454 48.3163 146.154 49.1163 143.854 50.7163C141.554 52.3176 139.422 54.3136 137.46 56.699C135.496 59.087 133.77 61.6683 132.285 64.447C130.796 67.227 129.661 69.811 128.876 72.1976C128.09 74.5856 127.74 76.579 127.824 78.1776C127.908 79.779 128.568 80.5803 129.801 80.5803C131.034 80.5803 132.465 80.0376 134.093 78.9483C135.721 77.8616 137.262 76.623 138.722 75.2323C140.46 73.6616 142.2 71.879 143.94 69.8856C143.772 69.4643 143.63 68.9496 143.518 68.3443C143.405 67.863 143.321 67.2883 143.265 66.623C143.21 65.959 143.181 65.2043 143.181 64.3576C143.181 62.5443 143.616 61.003 144.486 59.735C145.354 58.467 146.309 57.6363 147.348 57.243C148.385 56.851 149.338 56.971 150.209 57.6043C151.077 58.2403 151.513 59.4936 151.513 61.367C151.513 62.2123 151.146 63.3296 150.418 64.719C149.689 66.1096 148.652 67.771 147.305 69.7056C147.416 69.8256 147.654 69.963 148.02 70.111C148.385 70.263 148.68 70.3376 148.904 70.3376C149.913 70.3376 150.924 69.931 151.933 69.115C152.944 68.3003 154.037 67.1216 155.216 65.5803C156.393 64.039 157.67 62.167 159.044 59.9616C160.417 57.7576 161.949 55.263 163.63 52.4843C163.91 52.0003 164.261 51.6843 164.681 51.5336C165.102 51.3816 165.453 51.3963 165.734 51.579C166.013 51.7603 166.168 52.0923 166.197 52.575C166.225 53.059 166.013 53.6616 165.566 54.387C165.285 54.8723 164.85 55.6723 164.261 56.7896C163.673 57.9083 162.942 59.1603 162.073 60.5496C161.202 61.9403 160.236 63.4056 159.17 64.9456C158.104 66.487 156.996 67.891 155.846 69.1603C154.696 70.4296 153.504 71.4723 152.27 72.287C151.036 73.103 149.83 73.511 148.652 73.511Z" fill="white"/>
<path d="M0.81953 95.3196C0.830197 97.1663 1.91553 98.9663 4.0742 98.9663C6.2462 98.9663 7.34353 97.1663 7.34353 95.3196C7.34353 93.4263 6.25686 91.685 4.0742 91.685C1.89286 91.685 0.80753 93.3916 0.81953 95.3196ZM7.90753 95.3316C7.89686 97.4823 6.6262 99.5516 4.0742 99.5516C1.52486 99.5516 0.24353 97.4703 0.24353 95.309C0.24353 93.1103 1.5142 91.101 4.0742 91.101C6.63686 91.101 7.9182 93.1223 7.90753 95.3316" fill="white"/>
<path d="M4.07467 91.9289C3.224 91.9289 2.52533 92.1969 1.996 92.7303C1.388 93.3409 1.056 94.2609 1.06267 95.3183C1.072 96.9583 2.01867 98.7236 4.07467 98.7236C6.15333 98.7236 7.09867 96.9583 7.09867 95.3196C7.09867 93.6316 6.164 91.9289 4.07467 91.9289ZM4.07467 99.2103C1.68667 99.2103 0.586667 97.1943 0.576 95.3209C0.569333 94.1316 0.950667 93.0903 1.652 92.3863C2.26533 91.7676 3.10267 91.4409 4.07467 91.4409C6.5 91.4409 7.58667 93.3903 7.58667 95.3196C7.58667 97.1943 6.488 99.2103 4.07467 99.2103ZM4.07467 91.3449C1.59733 91.3449 0.488 93.3356 0.488 95.3089C0.488 97.2343 1.61067 99.3076 4.07467 99.3076C6.54 99.3076 7.65333 97.3103 7.66267 95.3316C7.66933 94.1223 7.26533 93.0183 6.552 92.3036C5.928 91.6769 5.072 91.3449 4.07467 91.3449V91.3449ZM4.07467 99.7943C1.27467 99.7943 0 97.4689 0 95.3089C0 93.0929 1.26 90.8569 4.07467 90.8569C5.204 90.8569 6.18 91.2383 6.89733 91.9596C7.71333 92.7783 8.15867 93.9756 8.152 95.3329C8.14 97.4823 6.86 99.7943 4.07467 99.7943Z" fill="white"/>
<path d="M11.8611 91.8131V96.0091H14.6077C17.1371 96.0091 17.1371 91.8131 14.6077 91.8131H11.8611ZM11.8611 96.5824V99.4104H11.2744V91.2291H14.6077C17.9077 91.2291 17.9077 96.5824 14.6077 96.5824H11.8611Z" fill="white"/>
<path d="M12.1047 95.7661H14.6074C15.118 95.7661 15.5434 95.5714 15.8407 95.2008C16.1114 94.8634 16.2607 94.4048 16.2607 93.9114C16.2607 93.0168 15.7434 92.0568 14.6074 92.0568H12.1047V95.7661ZM14.6074 96.2528H11.618V91.5701H14.6074C16.0127 91.5701 16.7474 92.7474 16.7474 93.9114C16.7474 94.5168 16.5607 95.0821 16.2207 95.5061C15.8274 95.9954 15.27 96.2528 14.6074 96.2528V96.2528ZM11.518 99.1674H11.618V96.3394H14.6074C15.2967 96.3394 15.874 96.0794 16.2754 95.5914C16.638 95.1488 16.8394 94.5501 16.8394 93.9048C16.8394 92.7341 16.1394 91.4728 14.6074 91.4728H11.518V99.1674ZM12.1047 99.6541H11.03V90.9848H14.6074C16.3927 90.9848 17.326 92.4554 17.326 93.9048C17.326 95.3554 16.3927 96.8261 14.6074 96.8261H12.1047V99.6541Z" fill="white"/>
<path d="M20.9276 95.0045H25.3782V95.5779H20.9276V98.8032H25.7249V99.4112H20.3502V91.2285H25.5956V91.8259H20.9276V95.0045Z" fill="white"/>
<path d="M20.5955 99.1672H25.4809V99.0472H20.6835V95.3339H25.1342V95.2485H20.6835V91.5832H25.3502V91.4725H20.5955V99.1672ZM25.9675 99.6539H20.1075V90.9845H25.8395V92.0699H21.1715V94.7605H25.6222V95.8205H21.1715V98.5592H25.9675V99.6539Z" fill="white"/>
<path d="M29.5916 95.7166H32.2836C33.6089 95.7166 34.1942 94.9113 34.2049 93.7646C34.2156 92.806 33.6089 91.8126 32.3476 91.8126H29.5916V95.7166ZM35.0622 99.4113H34.2902L31.6649 96.3126H29.5916V99.4113H29.0062V91.2286H32.3476C33.9982 91.2286 34.8342 92.5033 34.8449 93.7766C34.8556 95.1086 34.0422 96.278 32.3809 96.278L35.0622 99.4113Z" fill="white"/>
<path d="M29.8352 95.4731H32.2832C33.6578 95.4731 33.9552 94.5438 33.9618 93.7638C33.9672 93.2691 33.7925 92.8078 33.4832 92.4958C33.1965 92.2051 32.8125 92.0558 32.3485 92.0558H29.8352V95.4731ZM32.2832 95.9598H29.3485V91.5691H32.3485C32.9392 91.5691 33.4525 91.7718 33.8298 92.1531C34.2298 92.5571 34.4552 93.1451 34.4485 93.7678C34.4352 95.1611 33.6458 95.9598 32.2832 95.9598ZM34.4045 99.1678H34.5325L31.8525 96.0345H32.3805C33.0458 96.0345 33.6032 95.8265 33.9912 95.4358C34.3898 95.0331 34.6072 94.4451 34.6005 93.7785C34.5912 92.6678 33.8818 91.4731 32.3485 91.4731H29.2498V99.1678H29.3485V96.0691H31.7778L34.4045 99.1678ZM35.5912 99.6545H34.1778L31.5512 96.5571H29.8352V99.6545H28.7618V90.9851H32.3485C34.1312 90.9851 35.0765 92.3891 35.0885 93.7758C35.0952 94.5705 34.8285 95.2825 34.3378 95.7785C33.9605 96.1598 33.4632 96.3985 32.8792 96.4865L35.5912 99.6545Z" fill="white"/>
<path d="M42.9992 96.8158L40.9592 91.8371L38.9179 96.8158H42.9992ZM44.0632 99.4105L43.2272 97.3998H38.6899L37.8646 99.4105H37.2366L40.6446 91.2291H41.2846L44.6939 99.4105H44.0632Z" fill="white"/>
<path d="M39.2818 96.5722H42.6351L40.9591 92.4802L39.2818 96.5722ZM44.2258 99.1668H44.3271L41.1218 91.4735H41.0724L43.3631 97.0602H38.5551L40.8444 91.4735H40.8071L37.6004 99.1668H37.7018L38.5271 97.1562H43.3898L44.2258 99.1668ZM45.0578 99.6548H43.9004L43.0644 97.6442H38.8538L38.0298 99.6548H36.8698L40.4818 90.9855H41.4471L41.5084 91.1362L45.0578 99.6548Z" fill="white"/>
<path d="M48.408 91.8261V98.8021H50.3933C52.652 98.8021 53.6933 96.9794 53.66 95.2274C53.6293 93.5208 52.5866 91.8261 50.3933 91.8261H48.408ZM54.248 95.2274C54.2906 97.3074 53.0533 99.4101 50.3933 99.4101H47.8226V91.2288H50.3933C52.9666 91.2288 54.204 93.2168 54.248 95.2274" fill="white"/>
<path d="M48.6516 98.5592H50.3942C51.2582 98.5592 51.9689 98.2819 52.5062 97.7352C53.1036 97.1272 53.4356 96.2139 53.4169 95.2325C53.3889 93.6579 52.4409 92.0699 50.3942 92.0699H48.6516V98.5592ZM50.3942 99.0472H48.1649V91.5832H50.3942C52.7716 91.5832 53.8702 93.4112 53.9049 95.2219C53.9262 96.3352 53.5422 97.3739 52.8542 98.0765C52.2316 98.7112 51.3796 99.0472 50.3942 99.0472ZM48.0662 99.1672H50.3942C51.4249 99.1672 52.3049 98.8245 52.9396 98.1779C53.6396 97.4619 54.0276 96.3885 54.0049 95.2325C53.9622 93.3619 52.8316 91.4739 50.3942 91.4739H48.0662V99.1672ZM50.3942 99.6539H47.5782V90.9845H50.3942C53.1609 90.9845 54.4462 93.1139 54.4916 95.2205C54.5169 96.5085 54.0782 97.7085 53.2876 98.5179C52.5596 99.2605 51.5596 99.6539 50.3942 99.6539Z" fill="white"/>
<path d="M57.908 95.3196C57.9187 97.1663 59.004 98.9663 61.164 98.9663C63.3347 98.9663 64.432 97.1663 64.432 95.3196C64.432 93.4263 63.3454 91.685 61.164 91.685C58.9827 91.685 57.8974 93.3916 57.908 95.3196ZM64.9947 95.3316C64.9854 97.4823 63.7134 99.5516 61.164 99.5516C58.6134 99.5516 57.332 97.4703 57.332 95.309C57.332 93.1103 58.6027 91.101 61.164 91.101C63.7254 91.101 65.0067 93.1223 64.9947 95.3316" fill="white"/>
<path d="M61.1645 91.9289C60.3125 91.9289 59.6152 92.1969 59.0845 92.7289C58.4765 93.3409 58.1445 94.2609 58.1512 95.3196C58.1618 96.9569 59.1085 98.7236 61.1645 98.7236C63.2432 98.7236 64.1885 96.9583 64.1885 95.3196C64.1885 93.6316 63.2525 91.9289 61.1645 91.9289ZM61.1645 99.2103C58.7752 99.2103 57.6752 97.1943 57.6632 95.3223C57.6565 94.1316 58.0392 93.0903 58.7405 92.3849C59.3552 91.7676 60.1925 91.4409 61.1645 91.4409C63.5898 91.4409 64.6765 93.3903 64.6765 95.3196C64.6765 97.1943 63.5765 99.2103 61.1645 99.2103V99.2103ZM61.1645 91.3449C58.6858 91.3449 57.5765 93.3356 57.5765 95.3089C57.5765 97.2343 58.6992 99.3076 61.1645 99.3076C63.6298 99.3076 64.7432 97.3103 64.7512 95.3316C64.7578 94.1223 64.3538 93.0183 63.6405 92.3036C63.0178 91.6769 62.1605 91.3449 61.1645 91.3449V91.3449ZM61.1645 99.7943C58.3632 99.7943 57.0885 97.4689 57.0885 95.3089C57.0885 93.0929 58.3498 90.8569 61.1645 90.8569C62.2925 90.8569 63.2685 91.2383 63.9858 91.9596C64.8018 92.7783 65.2458 93.9756 65.2392 95.3329C65.2285 97.4809 63.9485 99.7943 61.1645 99.7943Z" fill="white"/>
<path d="M68.9613 95.7166H71.6533C72.9773 95.7166 73.5626 94.9113 73.5733 93.7646C73.5853 92.806 72.9773 91.8126 71.7173 91.8126H68.9613V95.7166ZM74.432 99.4113H73.66L71.0346 96.3126H68.9613V99.4113H68.3746V91.2286H71.7173C73.368 91.2286 74.204 92.5033 74.2146 93.7766C74.2253 95.1086 73.412 96.278 71.7506 96.278L74.432 99.4113Z" fill="white"/>
<path d="M69.2048 95.4731H71.6528C73.0261 95.4731 73.3235 94.5438 73.3301 93.7638C73.3355 93.2705 73.1621 92.8091 72.8528 92.4958C72.5661 92.2051 72.1821 92.0558 71.7181 92.0558H69.2048V95.4731ZM71.6528 95.9598H68.7181V91.5691H71.7181C72.3088 91.5691 72.8221 91.7718 73.1995 92.1531C73.5995 92.5571 73.8248 93.1465 73.8168 93.7678C73.8048 95.1611 73.0155 95.9598 71.6528 95.9598ZM73.7741 99.1678H73.9021L71.2208 96.0345H71.7501C72.4155 96.0345 72.9715 95.8278 73.3595 95.4358C73.7595 95.0331 73.9768 94.4451 73.9715 93.7785C73.9608 92.6678 73.2515 91.4731 71.7181 91.4731H68.6195V99.1678H68.7181V96.0691H71.1475L73.7741 99.1678ZM74.9608 99.6545H73.5475L70.9208 96.5571H69.2048V99.6545H68.1301V90.9851H71.7181C73.5008 90.9851 74.4461 92.3891 74.4581 93.7758C74.4648 94.5718 74.1981 95.2838 73.7061 95.7785C73.3288 96.1598 72.8315 96.3985 72.2488 96.4865L74.9608 99.6545Z" fill="white"/>
<path d="M82.369 96.8158L80.329 91.8371L78.2863 96.8158H82.369ZM83.433 99.4105L82.597 97.3998H78.0596L77.2343 99.4105H76.605L80.013 91.2291H80.6543L84.0636 99.4105H83.433Z" fill="white"/>
<path d="M78.6502 96.5722H82.0062L80.3288 92.4802L78.6502 96.5722ZM83.5955 99.1668H83.6968L80.4915 91.4735H80.4422L82.7328 97.0602H77.9235L80.2142 91.4735H80.1768L76.9702 99.1668H77.0702L77.8968 97.1562H82.7595L83.5955 99.1668ZM84.4275 99.6548H83.2702L82.4342 97.6442H78.2235L77.3982 99.6548H76.2382L79.8502 90.9855H80.8168L80.8782 91.1362L84.4275 99.6548Z" fill="white"/>
<path d="M94.02 91.8014H91.2733V91.2414H97.352V91.8014H94.6053V99.4107H94.02V91.8014Z" fill="white"/>
<path d="M94.2635 99.1672H94.3622V91.5579H97.1088V91.4845H91.5168V91.5579H94.2635V99.1672ZM94.8488 99.6539H93.7768V92.0459H91.0302V90.9979H97.5955V92.0459H94.8488V99.6539Z" fill="white"/>
<path d="M106.482 91.2284V96.3124C106.482 100.59 100.666 100.602 100.666 96.3124V91.2284H101.24V96.3124C101.24 99.8311 105.906 99.8191 105.906 96.3124V91.2284H106.482Z" fill="white"/>
<path d="M100.909 91.4732V96.3132C100.909 98.3532 102.288 99.2812 103.571 99.2812C104.856 99.2812 106.239 98.3532 106.239 96.3132V91.4732H106.151V96.3132C106.151 98.2026 104.852 99.1919 103.571 99.1919C102.292 99.1919 100.996 98.2026 100.996 96.3132V91.4732H100.909ZM103.571 99.7692C102.055 99.7692 100.421 98.6879 100.421 96.3132V90.9852H101.484V96.3132C101.484 97.9559 102.565 98.7039 103.571 98.7039C104.579 98.7039 105.663 97.9559 105.663 96.3132V90.9852H106.725V96.3132C106.725 98.5826 105.139 99.7692 103.571 99.7692" fill="white"/>
<path d="M110.654 95.7166H113.346C114.67 95.7166 115.256 94.9113 115.268 93.7646C115.278 92.806 114.67 91.8126 113.41 91.8126H110.654V95.7166ZM116.125 99.4113H115.353L112.728 96.3126H110.654V99.4113H110.068V91.2286H113.41C115.061 91.2286 115.897 92.5033 115.906 93.7766C115.918 95.1086 115.104 96.278 113.444 96.278L116.125 99.4113Z" fill="white"/>
<path d="M110.898 95.4731H113.346C114.718 95.4731 115.016 94.5425 115.024 93.7625C115.03 93.2705 114.856 92.8078 114.546 92.4958C114.258 92.2051 113.876 92.0558 113.411 92.0558H110.898V95.4731ZM113.346 95.9598H110.411V91.5691H113.411C114.003 91.5691 114.515 91.7718 114.892 92.1531C115.292 92.5571 115.518 93.1451 115.511 93.7678C115.496 95.1611 114.707 95.9598 113.346 95.9598ZM115.468 99.1678H115.594L112.915 96.0345H113.443C114.108 96.0345 114.664 95.8265 115.054 95.4358C115.452 95.0331 115.668 94.4451 115.663 93.7785C115.654 92.6678 114.946 91.4731 113.411 91.4731H110.312V99.1678H110.411V96.0691H112.84L115.468 99.1678ZM116.652 99.6545H115.242L112.614 96.5571H110.898V99.6545H109.823V90.9851H113.411C115.195 90.9851 116.14 92.3891 116.15 93.7758C116.156 94.5705 115.891 95.2825 115.4 95.7785C115.022 96.1598 114.524 96.3985 113.942 96.4865L116.652 99.6545Z" fill="white"/>
<path d="M119.665 91.2291H119.089V99.4117H119.665V91.2291ZM119.068 90.3304V90.2824L119.883 88.8797H120.588V88.8917L119.591 90.3304H119.068Z" fill="white"/>
<path d="M120.023 89.123L119.472 90.0723L120.132 89.123H120.023ZM119.717 90.5736H118.825V90.263L118.859 90.159L119.743 88.6363H120.831V88.955L120.788 89.031L119.717 90.5736ZM119.333 99.167H119.421V91.4723H119.333V99.167ZM119.909 99.6536H118.847V90.9843H119.909V99.6536Z" fill="white"/>
<path d="M128.459 92.8065C127.906 91.8478 127.015 91.7078 126.158 91.6958C125.267 91.6958 123.856 92.0478 123.856 93.3558C123.856 94.3958 124.898 94.6425 126.179 94.8985C127.646 95.2025 129.164 95.4838 129.164 97.2478C129.154 99.0945 127.428 99.5385 126.158 99.5385C124.975 99.5385 123.628 99.0118 123.043 97.7625L123.563 97.4825C124.031 98.4758 125.223 98.9665 126.158 98.9665C127.091 98.9665 128.579 98.6852 128.579 97.2358C128.59 96.0092 127.33 95.7398 126.083 95.4838C124.692 95.1905 123.27 94.8878 123.27 93.3798C123.238 91.6505 124.91 91.1118 126.158 91.1118C127.243 91.1118 128.187 91.2998 128.936 92.5025L128.459 92.8065Z" fill="white"/>
<path d="M123.37 97.8625C123.98 98.9145 125.189 99.2945 126.158 99.2945C126.985 99.2945 128.91 99.0959 128.921 97.2465C128.921 95.7132 127.664 95.4532 126.208 95.1545L126.129 95.1385C124.952 94.9012 123.613 94.6332 123.613 93.3559C123.613 92.0412 124.892 91.4519 126.158 91.4519C126.993 91.4639 127.913 91.5999 128.533 92.4705L128.597 92.4319C127.958 91.5425 127.181 91.3559 126.158 91.3559C125.256 91.3559 124.445 91.6345 123.986 92.1012C123.664 92.4305 123.505 92.8585 123.513 93.3759C123.513 94.6025 124.552 94.9119 126.132 95.2452C127.398 95.5052 128.834 95.8012 128.822 97.2385C128.822 98.4732 127.826 99.2105 126.158 99.2105C125.24 99.2105 124.049 98.7719 123.464 97.8119L123.37 97.8625ZM126.158 99.7812C124.98 99.7812 123.484 99.2785 122.822 97.8665L122.724 97.6572L123.674 97.1465L123.785 97.3785C124.198 98.2625 125.292 98.7239 126.158 98.7239C126.813 98.7239 128.336 98.5785 128.336 97.2359C128.342 96.2719 127.429 96.0092 126.033 95.7239C124.622 95.4252 123.026 95.0879 123.026 93.3799C123.013 92.7319 123.221 92.1852 123.64 91.7599C124.428 90.9545 125.664 90.8679 126.158 90.8679C127.388 90.8679 128.365 91.1239 129.144 92.3745L129.272 92.5799L128.376 93.1492L128.248 92.9292C127.784 92.1252 127.076 91.9519 126.156 91.9399C125.949 91.9399 124.1 91.9799 124.1 93.3559C124.1 94.1745 124.904 94.3945 126.228 94.6612L126.305 94.6759C127.76 94.9772 129.408 95.3172 129.408 97.2479C129.396 99.5999 126.917 99.7812 126.158 99.7812Z" fill="white"/>
<path d="M134.541 91.8014H131.793V91.2414H137.872V91.8014H135.126V99.4107H134.541V91.8014Z" fill="white"/>
<path d="M134.784 99.1672H134.883V91.5579H137.628V91.4845H132.036V91.5579H134.784V99.1672ZM135.37 99.6539H134.296V92.0459H131.55V90.9979H138.115V92.0459H135.37V99.6539Z" fill="white"/>
<path d="M140.968 91.2291H141.544V99.4117H140.968V91.2291Z" fill="white"/>
<path d="M141.212 99.1677H141.3V91.4731H141.212V99.1677ZM141.787 99.6544H140.724V90.9851H141.787V99.6544Z" fill="white"/>
<path d="M151.466 98.2767C150.706 99.094 149.696 99.5034 148.697 99.5034C146.136 99.5034 144.801 97.5767 144.789 95.366C144.769 93.1807 146.093 91.1367 148.697 91.1367C149.696 91.1367 150.706 91.5434 151.466 92.362L151.064 92.738C150.413 92.034 149.554 91.6954 148.697 91.6954C146.484 91.6954 145.342 93.3794 145.354 95.3434C145.376 97.2594 146.504 98.9194 148.697 98.9194C149.554 98.9194 150.424 98.57 151.074 97.8794L151.466 98.2767Z" fill="white"/>
<path d="M148.697 91.3795C147.669 91.3795 146.784 91.7235 146.14 92.3742C145.425 93.0955 145.021 94.1848 145.033 95.3635C145.044 97.3035 146.18 99.2595 148.697 99.2595C149.604 99.2595 150.456 98.9115 151.124 98.2768L151.072 98.2235C150.421 98.8235 149.569 99.1635 148.697 99.1635C146.249 99.1635 145.132 97.2448 145.112 95.3462C145.105 94.1675 145.488 93.1302 146.188 92.4262C146.821 91.7902 147.689 91.4528 148.697 91.4528C149.588 91.4528 150.422 91.7875 151.072 92.3982L151.117 92.3555C150.45 91.7248 149.601 91.3795 148.697 91.3795ZM148.697 99.7462C145.845 99.7462 144.558 97.5475 144.546 95.3662C144.533 94.0608 144.989 92.8448 145.793 92.0315C146.53 91.2862 147.536 90.8928 148.697 90.8928C149.817 90.8928 150.864 91.3555 151.645 92.1968L151.81 92.3742L151.053 93.0808L150.886 92.9035C150.31 92.2822 149.533 91.9395 148.697 91.9395C147.822 91.9395 147.073 92.2262 146.534 92.7702C145.925 93.3822 145.593 94.2968 145.598 95.3422C145.614 96.8795 146.437 98.6755 148.697 98.6755C149.517 98.6755 150.32 98.3248 150.897 97.7115L151.07 97.5275L151.804 98.2715L151.645 98.4422C150.864 99.2848 149.817 99.7462 148.697 99.7462Z" fill="white"/>
<path d="M159.456 96.8158L157.416 91.8371L155.375 96.8158H159.456ZM160.52 99.4105L159.685 97.3998H155.148L154.323 99.4105H153.693L157.101 91.2291H157.741L161.151 99.4105H160.52Z" fill="white"/>
<path d="M155.739 96.5722H159.093L157.416 92.4802L155.739 96.5722ZM160.683 99.1668H160.785L157.579 91.4735H157.531L159.82 97.0602H155.012L157.301 91.4735H157.265L154.059 99.1668H154.159L154.984 97.1562H159.848L160.683 99.1668ZM161.516 99.6548H160.357L159.523 97.6442H155.312L154.488 99.6548H153.327L156.939 90.9855H157.904L157.967 91.1362L161.516 99.6548Z" fill="white"/>
<path d="M136.142 6.34693C136.137 0.538925 132.601 -1.54241 127.666 1.18826C127.337 1.36959 127.029 1.58692 126.71 1.78693C125.892 2.30026 125.844 2.81359 126.472 3.60959C128.693 6.42826 128.549 8.08559 126.085 10.6309C123.262 13.5496 119.685 15.1923 116.014 16.6896C115.382 16.9483 114.533 17.0923 114.693 17.9963C114.893 19.1163 115.853 18.7509 116.536 18.6443C120.693 17.9909 124.785 17.0803 128.662 15.3696C130.224 14.6803 131.685 13.8243 132.958 12.6989C134.912 10.9736 136.25 8.91626 136.142 6.34693ZM146.94 12.1856C144.302 12.0976 141.67 12.1549 139.064 12.5989C138.48 12.6989 137.6 12.6123 137.504 13.3603C137.392 14.2563 138.242 14.5589 138.957 14.8149C139.25 14.9203 139.565 14.9736 139.872 15.0376C146.609 16.4469 152.726 19.1923 158.165 23.4429C159.6 24.5656 161.162 25.4923 162.988 25.9003C165.742 26.5163 167.692 25.0069 167.744 22.1629C167.782 19.9883 167.041 18.1083 165.53 16.5443C163.76 14.7109 161.5 13.7976 159.077 13.2816C155.081 12.4283 151.034 12.0069 146.94 12.1856V12.1856ZM120.986 21.9523C111.742 22.1936 104.025 26.3203 98.1944 34.0616C97.7731 34.6216 96.9531 35.3109 97.5877 36.0189C98.2264 36.7309 98.9891 35.9949 99.5757 35.6056C101.648 34.2336 103.94 33.4656 106.336 32.8883C111.21 31.7123 116.034 32.3643 120.885 33.0669C123.657 33.4696 126.397 33.1096 128.961 31.9376C131.974 30.5589 132.468 27.2176 130.132 24.8469C127.721 22.4029 124.669 22.0123 120.986 21.9523V21.9523ZM124.658 18.3189C125.001 18.9656 125.326 18.9709 125.629 19.0003C137.15 20.1269 146.093 25.8923 153.612 34.3576C159.298 40.7589 165.952 44.9456 175.094 44.3029C184.84 43.6189 191.085 35.8176 189.958 26.3349C189.142 19.4696 184.444 15.4843 178.565 12.6976C176.538 11.7376 174.364 11.3589 172.174 12.2429C170.816 12.7909 169.44 13.4429 169.332 15.1616C169.222 16.8749 170.374 17.9029 171.652 18.7749C172.008 19.0189 172.444 19.1483 172.846 19.3216C175.024 20.2563 176.83 21.6949 178.368 23.4683C180.406 25.8189 180.638 28.4283 179.109 31.1203C177.534 33.8869 174.957 34.9283 171.534 34.1429C165.697 32.8056 161.154 29.1949 156.75 25.4629C151.186 20.7456 144.962 17.6589 137.677 16.8483C133.264 16.3576 128.968 16.8829 124.658 18.3189" fill="white"/>
<path fill-rule="evenodd" clip-rule="evenodd" d="M124.658 18.3183C124.495 18.0063 133.515 16.8476 134.439 16.8916C148.391 17.5649 157.467 30.1169 170.326 33.9116C174.075 35.0169 177.897 33.1716 179.114 29.4569C180.639 24.8036 176.905 21.0649 172.847 19.3209C172.443 19.1489 172.009 19.0183 171.651 18.7743C170.374 17.9023 169.222 16.8756 169.331 15.1609C169.439 13.4436 170.815 12.7903 172.175 12.2423C174.363 11.3596 176.538 11.7369 178.566 12.6983C184.443 15.4849 189.142 19.4703 189.959 26.3343C191.085 35.8169 184.841 43.6196 175.094 44.3023C165.953 44.9463 159.298 40.7583 153.611 34.3569C146.093 25.8916 137.15 20.1276 125.63 19.0009C125.326 18.9703 125.001 18.9649 124.658 18.3183Z" fill="white"/>
<path fill-rule="evenodd" clip-rule="evenodd" d="M120.986 21.9524C124.669 22.0111 127.721 22.4031 130.132 24.8471C132.468 27.2177 131.974 30.5591 128.961 31.9377C126.398 33.1097 123.657 33.4697 120.885 33.0671C116.034 32.3644 111.21 31.7124 106.336 32.8884C103.94 33.4657 101.648 34.2337 99.5755 35.6057C98.9888 35.9951 98.2275 36.7311 97.5875 36.0191C96.9542 35.3111 97.7728 34.6217 98.1942 34.0617C104.025 26.3204 111.742 22.1937 120.986 21.9524Z" fill="white"/>
<path fill-rule="evenodd" clip-rule="evenodd" d="M146.938 12.1835C151.034 12.0075 155.081 12.4275 159.077 13.2808C161.499 13.7982 163.759 14.7115 165.53 16.5448C167.041 18.1088 167.783 19.9888 167.743 22.1635C167.691 25.0075 165.743 26.5168 162.987 25.9008C161.162 25.4928 159.599 24.5662 158.165 23.4435C152.726 19.1915 146.609 16.4462 139.871 15.0368C139.566 14.9728 139.25 14.9195 138.958 14.8142C138.243 14.5582 137.391 14.2555 137.505 13.3595C137.599 12.6115 138.479 12.6995 139.065 12.5995C141.671 12.1555 144.302 12.0982 146.938 12.1835Z" fill="white"/>
<path fill-rule="evenodd" clip-rule="evenodd" d="M136.142 6.34692C136.25 8.91625 134.912 10.9736 132.958 12.6989C131.685 13.8243 130.224 14.6803 128.662 15.3696C124.785 17.0803 120.693 17.9909 116.536 18.6443C115.853 18.7509 114.893 19.1163 114.693 17.9963C114.533 17.0923 115.382 16.9483 116.014 16.6896C119.685 15.1923 123.261 13.5509 126.084 10.6336C128.077 8.57492 127.954 7.05625 127.324 4.50425C126.542 1.35359 128.608 -0.157079 131.712 0.026921C135.066 0.226921 136.138 3.36425 136.142 6.34692Z" fill="white"/>
</svg>
