<svg width="267" height="137" viewBox="0 0 267 137" fill="none" xmlns="http://www.w3.org/2000/svg">
<path d="M24.3648 101.555C28.1248 101.555 31.6568 100.505 34.9568 98.4021C38.2568 96.3008 41.2328 93.6634 43.8808 90.4888C46.5288 87.3154 48.7742 83.8954 50.6155 80.2261C52.4582 76.5581 53.7822 73.1381 54.5888 69.9648C55.3942 66.7901 55.6422 64.1541 55.3368 62.0514C55.0302 59.9488 54.0315 58.8968 52.3435 58.8968C51.2675 58.8968 49.7528 59.5568 47.7955 60.8754C45.8382 62.1941 43.8608 63.6794 41.8662 65.3261C40.4075 67.5528 39.1208 69.5514 38.0088 71.3234C36.8955 73.0954 35.9168 74.6008 35.0728 75.8368C34.1515 77.3221 33.3062 78.5981 32.5395 79.6701C31.0808 82.0608 29.6608 84.4501 28.2795 86.8408C27.0515 88.9021 25.7648 91.1474 24.4222 93.5808C23.0782 96.0114 21.8688 98.3408 20.7955 100.565C21.6395 101.226 22.8288 101.555 24.3648 101.555ZM81.1115 71.7941C81.5728 71.1328 82.0902 70.7208 82.6662 70.5541C83.2422 70.3888 83.7208 70.4301 84.1048 70.6768C84.4888 70.9248 84.6981 71.3808 84.7381 72.0421C84.7768 72.7048 84.4888 73.5288 83.8755 74.5221C83.4902 75.1848 82.4355 76.6728 80.7088 78.9861C78.9808 81.3021 76.7941 83.9888 74.1461 87.0461C71.4981 90.1061 68.4648 93.3074 65.0502 96.6568C61.6342 100.005 58.0248 103.085 54.2248 105.895C50.4248 108.706 46.5088 111.041 42.4795 112.902C38.4488 114.761 34.5155 115.691 30.6755 115.691L30.7915 115.442C29.3302 115.359 28.0262 114.982 26.8742 114.315C25.7235 113.649 24.6675 112.793 23.7088 111.75C22.7475 110.707 21.8648 109.583 21.0582 108.373C20.2528 107.163 19.5035 105.934 18.8128 104.682C18.5835 105.178 18.2968 105.881 17.9542 106.79C17.6128 107.701 17.2515 108.631 16.8702 109.581C16.4888 110.531 16.1648 111.378 15.8982 112.122C15.6328 112.866 15.4995 113.362 15.4995 113.61C15.4995 114.851 15.0382 115.449 14.1168 115.409C13.1968 115.367 12.1782 114.851 11.0662 113.859C9.95282 112.866 8.93682 111.502 8.01549 109.766C7.09416 108.03 6.63416 106.13 6.63416 104.065C6.63416 101.918 7.72749 98.5768 9.91549 94.0381C12.1022 89.5008 14.8462 84.3234 18.1475 78.5074C21.4475 72.6914 25.0155 66.5221 28.8555 59.9994C32.6928 53.4768 36.2622 47.1781 39.5635 41.1021C42.8622 35.0261 45.6075 29.4674 47.7955 24.4234C49.9835 19.3821 51.0768 15.4541 51.0768 12.6421C51.0768 11.9821 51.6448 11.7968 52.7862 12.0848C53.9248 12.3755 55.1781 13.0768 56.5461 14.1928C57.9128 15.3088 59.1661 16.8394 60.3061 18.7808C61.4448 20.7248 62.0155 22.9781 62.0155 25.5394C62.0155 26.7794 61.5915 28.4741 60.7501 30.6234C59.9088 32.7741 58.8368 35.1714 57.5328 37.8154C56.2315 40.4634 54.7555 43.2941 53.1102 46.3101C51.4622 49.3288 49.7955 52.2434 48.1128 55.0528C50.2168 54.1434 52.2755 53.6888 54.2848 53.6888C55.4355 53.6888 56.7208 53.8128 58.1422 54.0608C59.5608 54.3088 60.9048 54.9101 62.1715 55.8594C63.4382 56.8101 64.4928 58.2154 65.3368 60.0754C66.1808 61.9354 66.6048 64.5194 66.6048 67.8261C66.6048 70.8021 66.2395 73.7994 65.5101 76.8154C64.7808 79.8341 63.7835 82.8101 62.5168 85.7448C61.2502 88.6794 59.7542 91.4914 58.0262 94.1768C56.2995 96.8634 54.4755 99.3648 52.5582 101.679C55.0902 99.8608 57.7195 97.7528 60.4448 95.3554C63.1688 92.9581 65.7982 90.4568 68.3315 87.8528C70.8648 85.2488 73.2248 82.5821 75.4128 79.8541C77.5995 77.1261 79.4995 74.4408 81.1115 71.7941" fill="#393536"/>
<path d="M80.09 115.444C77.9406 115.444 76.2126 114.928 74.9086 113.894C73.6033 112.861 72.586 111.6 71.858 110.112C71.1273 108.624 70.6486 106.992 70.4193 105.213C70.1886 103.436 70.0726 101.804 70.0726 100.314C70.0726 98.5796 70.6673 96.0983 71.858 92.8743C73.0473 89.6503 74.6206 85.9729 76.578 81.8383C78.5353 77.7049 80.7606 73.2196 83.2566 68.3836C85.75 63.5476 88.3033 58.6489 90.9126 53.6889C93.522 48.7289 96.074 43.8303 98.57 38.9943C101.063 34.1583 103.29 29.6743 105.247 25.5396C107.205 21.4063 108.778 17.7489 109.969 14.5649C111.158 11.3836 111.753 8.96627 111.753 7.31027C111.753 6.40227 112.322 5.98894 113.462 6.07027C114.601 6.15427 115.855 6.75293 117.222 7.86893C118.59 8.98493 119.841 10.5969 120.982 12.7049C122.121 14.8129 122.691 17.4383 122.691 20.5796C122.691 22.1503 121.987 24.6103 120.583 27.9583C119.178 31.3063 117.335 35.1929 115.057 39.6143C112.777 44.0383 110.217 48.8329 107.378 53.9996C104.537 59.1663 101.717 64.3129 98.9153 69.4383C96.1126 74.5649 93.4646 79.5036 90.9713 84.2556C88.4753 89.0116 86.4406 93.2276 84.8686 96.9049C83.294 100.584 82.3353 103.52 81.99 105.709C81.6446 107.901 82.162 108.996 83.5446 108.996C84.3886 108.996 86.0766 107.798 88.61 105.4C91.1433 103.002 94.022 99.9649 97.246 96.2849C100.47 92.6076 103.786 88.5556 107.201 84.1329C110.617 79.7103 113.575 75.4329 116.083 71.2983C116.461 70.6369 116.935 70.2023 117.506 69.9956C118.075 69.7903 118.55 69.8089 118.931 70.0569C119.311 70.3049 119.519 70.7609 119.558 71.4209C119.595 72.0836 119.311 72.9103 118.702 73.9023C118.323 74.5649 117.355 76.0529 115.797 78.3663C114.239 80.6809 112.313 83.3689 110.017 86.4263C107.719 89.4849 105.19 92.7316 102.426 96.1609C99.6633 99.5916 96.918 102.733 94.194 105.585C91.4686 108.437 88.878 110.794 86.4233 112.653C83.9646 114.514 81.8553 115.444 80.09 115.444Z" fill="#393536"/>
<path d="M137.428 115.444C135.354 115.444 133.608 114.658 132.189 113.088C130.768 111.518 129.732 109.658 129.08 107.508C128.428 105.36 128.197 103.105 128.389 100.749C128.58 98.3929 129.253 96.3889 130.404 94.7356C127.793 98.6223 125.222 102.093 122.69 105.15C121.614 106.474 120.502 107.754 119.35 108.996C118.2 110.236 117.048 111.332 115.897 112.281C114.745 113.233 113.632 113.998 112.558 114.576C111.482 115.154 110.522 115.444 109.678 115.444C108.45 115.444 107.241 115.19 106.053 114.682C104.861 114.174 103.808 113.368 102.886 112.268C101.965 111.168 101.254 109.79 100.756 108.134C100.256 106.476 100.084 104.45 100.238 102.05C100.314 100.646 100.889 98.7463 101.965 96.3476C103.038 93.9503 104.364 91.3049 105.937 88.4116C107.51 85.5183 109.2 82.4583 111.004 79.2343C112.806 76.0103 114.496 72.8689 116.069 69.8089C117.642 66.7516 118.966 63.8783 120.041 61.1916C121.116 58.5049 121.729 56.1689 121.884 54.1849C121.96 53.4409 122.554 53.1516 123.669 53.3169C124.781 53.4836 125.972 54.0609 127.237 55.0529C128.505 56.0449 129.636 57.4303 130.634 59.2076C131.63 60.9863 132.054 63.1129 131.901 65.5929C131.746 67.2489 130.98 69.4996 129.598 72.3516C128.216 75.2036 126.565 78.2849 124.648 81.5889C122.728 84.8983 120.75 88.2463 118.717 91.6356C116.682 95.0263 114.936 98.1036 113.478 100.873C112.02 103.644 111.041 105.896 110.542 107.632C110.042 109.366 110.446 110.236 111.752 110.236C112.212 110.236 113.478 109.182 115.552 107.074C117.624 104.966 120.08 102.217 122.92 98.8263C125.76 95.4383 128.772 91.6556 131.958 87.4796C135.142 83.3063 138.098 79.1316 140.824 74.9556C143.548 70.7823 145.833 66.8556 147.674 63.1756C149.517 59.4983 150.513 56.4596 150.669 54.0609C150.744 53.3169 151.301 53.1116 152.338 53.4409C153.374 53.7729 154.506 54.4956 155.734 55.6103C156.961 56.7263 158.037 58.2569 158.958 60.1996C159.88 62.1423 160.262 64.3529 160.109 66.8329C160.033 68.4876 159.304 70.7209 157.922 73.5289C156.54 76.3409 154.928 79.3583 153.086 82.5823C151.244 85.8063 149.324 89.0729 147.329 92.3783C145.333 95.6863 143.605 98.6623 142.149 101.306C140.689 103.954 139.71 106.124 139.212 107.817C138.712 109.513 139.04 110.36 140.19 110.36C140.804 110.36 141.784 109.802 143.126 108.686C144.469 107.57 146.062 106.04 147.905 104.097C149.748 102.156 151.762 99.9023 153.95 97.3396C156.137 94.7769 158.362 92.0689 160.628 89.2169C162.89 86.3636 165.078 83.4716 167.19 80.5356C169.301 77.6023 171.201 74.7289 172.89 71.9169C173.273 71.2569 173.753 70.8436 174.329 70.6769C174.905 70.5129 175.384 70.5543 175.768 70.8023C176.152 71.0503 176.362 71.4836 176.401 72.1036C176.44 72.7236 176.152 73.5289 175.538 74.5223C175.153 75.1849 174.174 76.6516 172.602 78.9236C171.028 81.1983 169.128 83.8649 166.902 86.9223C164.676 89.9809 162.22 93.1649 159.534 96.4716C156.846 99.7783 154.16 102.838 151.474 105.646C148.786 108.46 146.216 110.794 143.76 112.653C141.302 114.514 139.192 115.444 137.428 115.444Z" fill="#393536"/>
<path d="M203.171 100.563C202.325 100.563 201.539 100.398 200.811 100.067C200.08 99.738 199.487 99.366 199.025 98.9513C198.565 99.614 198.143 100.15 197.759 100.563C197.604 100.646 197.451 100.811 197.299 101.059C197.144 101.226 196.972 101.43 196.781 101.679C196.588 101.926 196.377 102.217 196.147 102.546C193.384 105.69 190.391 108.459 187.167 110.855C183.943 113.254 180.719 114.701 177.495 115.197C177.417 115.279 177.303 115.319 177.149 115.319C176.841 115.319 176.649 115.363 176.573 115.443H175.423C174.271 115.443 172.984 115.238 171.565 114.823C170.144 114.411 168.803 113.646 167.535 112.53C166.269 111.414 165.213 109.843 164.369 107.817C163.524 105.793 163.103 103.126 163.103 99.818C163.103 96.098 163.659 92.378 164.772 88.658C165.884 84.938 167.381 81.3846 169.263 77.994C171.143 74.6046 173.292 71.422 175.711 68.446C178.128 65.47 180.621 62.886 183.195 60.6953C185.765 58.506 188.317 56.7886 190.851 55.5486C193.384 54.3086 195.687 53.6886 197.759 53.6886C200.983 53.6886 203.747 54.662 206.049 56.6033C208.352 58.546 210.232 60.8406 211.691 63.4846C211.921 63.8993 211.691 64.4366 211 65.0966C210.309 65.7593 208.657 66.09 206.049 66.09C202.9 66.09 199.753 67.186 196.608 69.3753C193.46 71.5673 190.543 74.2953 187.857 77.5606C185.169 80.826 182.809 84.3606 180.776 88.162C178.741 91.966 177.188 95.4993 176.113 98.7646C175.037 102.033 174.559 104.759 174.673 106.949C174.789 109.141 175.691 110.235 177.38 110.235C179.067 110.235 181.025 109.491 183.252 108.003C185.477 106.515 187.587 104.821 189.584 102.919C191.963 100.77 194.343 98.33 196.723 95.602C196.493 95.026 196.3 94.322 196.147 93.494C195.992 92.834 195.877 92.0486 195.801 91.1393C195.725 90.23 195.687 89.198 195.687 88.038C195.687 85.558 196.28 83.45 197.472 81.714C198.66 79.978 199.965 78.842 201.387 78.3046C202.805 77.7673 204.109 77.9313 205.301 78.7993C206.489 79.6686 207.085 81.3846 207.085 83.946C207.085 85.1046 206.585 86.634 205.588 88.5353C204.589 90.4366 203.171 92.71 201.328 95.3553C201.481 95.522 201.807 95.7073 202.308 95.9126C202.805 96.1206 203.208 96.222 203.516 96.222C204.897 96.222 206.28 95.6646 207.661 94.5486C209.043 93.4326 210.539 91.8206 212.151 89.7113C213.763 87.6033 215.508 85.042 217.391 82.0246C219.271 79.0073 221.363 75.5966 223.665 71.794C224.048 71.1326 224.529 70.6993 225.104 70.4913C225.68 70.286 226.159 70.306 226.544 70.554C226.927 70.802 227.137 71.2566 227.177 71.918C227.215 72.5806 226.927 73.406 226.313 74.398C225.928 75.0606 225.335 76.1553 224.529 77.6833C223.723 79.214 222.724 80.9286 221.535 82.83C220.344 84.7326 219.02 86.7366 217.563 88.8446C216.104 90.9526 214.588 92.874 213.015 94.61C211.441 96.3473 209.809 97.7726 208.121 98.8886C206.432 100.005 204.783 100.563 203.171 100.563Z" fill="#393536"/>
<path d="M1.78667 130.402C1.80133 132.93 3.28667 135.391 6.24133 135.391C9.212 135.391 10.712 132.93 10.712 130.402C10.712 127.813 9.228 125.43 6.24133 125.43C3.25733 125.43 1.772 127.763 1.78667 130.402ZM11.484 130.419C11.4693 133.361 9.732 136.191 6.24133 136.191C2.752 136.191 1 133.345 1 130.386C1 127.381 2.73733 124.63 6.24133 124.63C9.74667 124.63 11.5 127.397 11.484 130.419" fill="#393536"/>
<path d="M1.78667 130.402C1.80133 132.93 3.28667 135.391 6.24133 135.391C9.212 135.391 10.712 132.93 10.712 130.402C10.712 127.813 9.228 125.43 6.24133 125.43C3.25733 125.43 1.772 127.763 1.78667 130.402ZM11.484 130.419C11.4693 133.361 9.732 136.191 6.24133 136.191C2.752 136.191 1 133.345 1 130.386C1 127.381 2.73733 124.63 6.24133 124.63C9.74667 124.63 11.5 127.397 11.484 130.419V130.419Z" stroke="#393536" stroke-width="0.666667" stroke-miterlimit="10"/>
<path d="M16.8947 125.605V131.346H20.652C24.1134 131.346 24.1134 125.605 20.652 125.605H16.8947ZM16.8947 132.13V136H16.092V124.805H20.652C25.1667 124.805 25.1667 132.13 20.652 132.13H16.8947Z" fill="#393536"/>
<path d="M16.8947 125.605V131.346H20.652C24.1134 131.346 24.1134 125.605 20.652 125.605H16.8947ZM16.8947 132.13V136H16.092V124.805H20.652C25.1667 124.805 25.1667 132.13 20.652 132.13H16.8947Z" stroke="#393536" stroke-width="0.666667" stroke-miterlimit="10"/>
<path d="M29.2989 129.971H35.3882V130.754H29.2989V135.167H35.8629V135.999H28.5122V124.806H35.6855V125.62H29.2989V129.971Z" fill="#393536"/>
<path d="M29.2989 129.971H35.3882V130.754H29.2989V135.167H35.8629V135.999H28.5122V124.806H35.6855V125.62H29.2989V129.971Z" stroke="#393536" stroke-width="0.666667" stroke-miterlimit="10"/>
<path d="M41.1545 130.946H44.8371C46.6491 130.946 47.4518 129.842 47.4665 128.275C47.4811 126.965 46.6491 125.605 44.9265 125.605H41.1545V130.946ZM48.6398 135.999H47.5851L43.9905 131.761H41.1545V135.999H40.3518V124.806H44.9265C47.1838 124.806 48.3278 126.549 48.3425 128.293C48.3571 130.115 47.2438 131.714 44.9705 131.714L48.6398 135.999Z" fill="#393536"/>
<path d="M41.1545 130.946H44.8371C46.6491 130.946 47.4518 129.842 47.4665 128.275C47.4811 126.965 46.6491 125.605 44.9265 125.605H41.1545V130.946ZM48.6398 135.999H47.5851L43.9905 131.761H41.1545V135.999H40.3518V124.806H44.9265C47.1838 124.806 48.3278 126.549 48.3425 128.293C48.3571 130.115 47.2438 131.714 44.9705 131.714L48.6398 135.999Z" stroke="#393536" stroke-width="0.666667" stroke-miterlimit="10"/>
<path d="M59.4995 132.449L56.7075 125.637L53.9155 132.449H59.4995ZM60.9555 135.999L59.8115 133.249H53.6035L52.4741 135.999H51.6128L56.2768 124.806H57.1528L61.8168 135.999H60.9555Z" fill="#393536"/>
<path d="M59.4995 132.449L56.7075 125.637L53.9155 132.449H59.4995ZM60.9555 135.999L59.8115 133.249H53.6035L52.4741 135.999H51.6128L56.2768 124.806H57.1528L61.8168 135.999H60.9555Z" stroke="#393536" stroke-width="0.666667" stroke-miterlimit="10"/>
<path d="M66.8992 125.621V135.167H69.6166C72.7059 135.167 74.1326 132.673 74.0872 130.274C74.0432 127.941 72.6179 125.621 69.6166 125.621H66.8992ZM74.8899 130.274C74.9486 133.121 73.2566 135.999 69.6166 135.999H66.0966V124.806H69.6166C73.1366 124.806 74.8299 127.525 74.8899 130.274Z" fill="#393536"/>
<path d="M66.8992 125.621V135.167H69.6166C72.7059 135.167 74.1326 132.673 74.0872 130.274C74.0432 127.941 72.6179 125.621 69.6166 125.621H66.8992ZM74.8899 130.274C74.9486 133.121 73.2566 135.999 69.6166 135.999H66.0966V124.806H69.6166C73.1366 124.806 74.8299 127.525 74.8899 130.274Z" stroke="#393536" stroke-width="0.666667" stroke-miterlimit="10"/>
<path d="M79.898 130.402C79.9127 132.93 81.398 135.391 84.3527 135.391C87.3233 135.391 88.8233 132.93 88.8233 130.402C88.8233 127.813 87.3393 125.43 84.3527 125.43C81.3687 125.43 79.8833 127.763 79.898 130.402ZM89.5953 130.419C89.5807 133.361 87.8433 136.191 84.3527 136.191C80.8633 136.191 79.1113 133.345 79.1113 130.386C79.1113 127.381 80.8487 124.63 84.3527 124.63C87.858 124.63 89.6113 127.397 89.5953 130.419" fill="#393536"/>
<path d="M79.898 130.402C79.9127 132.93 81.398 135.391 84.3527 135.391C87.3233 135.391 88.8233 132.93 88.8233 130.402C88.8233 127.813 87.3393 125.43 84.3527 125.43C81.3687 125.43 79.8833 127.763 79.898 130.402ZM89.5953 130.419C89.5807 133.361 87.8433 136.191 84.3527 136.191C80.8633 136.191 79.1113 133.345 79.1113 130.386C79.1113 127.381 80.8487 124.63 84.3527 124.63C87.858 124.63 89.6113 127.397 89.5953 130.419V130.419Z" stroke="#393536" stroke-width="0.666667" stroke-miterlimit="10"/>
<path d="M95.0209 130.946H98.7036C100.516 130.946 101.318 129.842 101.333 128.275C101.348 126.965 100.516 125.605 98.7929 125.605H95.0209V130.946ZM102.506 135.999H101.452L97.8569 131.761H95.0209V135.999H94.2183V124.806H98.7929C101.05 124.806 102.194 126.549 102.209 128.293C102.224 130.115 101.11 131.714 98.8383 131.714L102.506 135.999Z" fill="#393536"/>
<path d="M95.0209 130.946H98.7036C100.516 130.946 101.318 129.842 101.333 128.275C101.348 126.965 100.516 125.605 98.7929 125.605H95.0209V130.946ZM102.506 135.999H101.452L97.8569 131.761H95.0209V135.999H94.2183V124.806H98.7929C101.05 124.806 102.194 126.549 102.209 128.293C102.224 130.115 101.11 131.714 98.8383 131.714L102.506 135.999Z" stroke="#393536" stroke-width="0.666667" stroke-miterlimit="10"/>
<path d="M113.366 132.449L110.574 125.637L107.782 132.449H113.366ZM114.822 135.999L113.678 133.249H107.47L106.341 135.999H105.479L110.143 124.806H111.019L115.683 135.999H114.822Z" fill="#393536"/>
<path d="M113.366 132.449L110.574 125.637L107.782 132.449H113.366ZM114.822 135.999L113.678 133.249H107.47L106.341 135.999H105.479L110.143 124.806H111.019L115.683 135.999H114.822Z" stroke="#393536" stroke-width="0.666667" stroke-miterlimit="10"/>
<path d="M129.308 125.589H125.55V124.821H133.866V125.589H130.11V136H129.308V125.589Z" fill="#393536"/>
<path d="M129.308 125.589H125.55V124.821H133.866V125.589H130.11V136H129.308V125.589Z" stroke="#393536" stroke-width="0.666667" stroke-miterlimit="10"/>
<path d="M146.36 124.805V131.761C146.36 137.615 138.399 137.631 138.399 131.761V124.805H139.187V131.761C139.187 136.576 145.572 136.557 145.572 131.761V124.805H146.36Z" fill="#393536"/>
<path d="M146.36 124.805V131.761C146.36 137.615 138.399 137.631 138.399 131.761V124.805H139.187V131.761C139.187 136.576 145.572 136.557 145.572 131.761V124.805H146.36Z" stroke="#393536" stroke-width="0.666667" stroke-miterlimit="10"/>
<path d="M152.067 130.946H155.749C157.561 130.946 158.364 129.842 158.379 128.275C158.393 126.965 157.561 125.605 155.839 125.605H152.067V130.946ZM159.552 135.999H158.497L154.903 131.761H152.067V135.999H151.264V124.806H155.839C158.096 124.806 159.24 126.549 159.255 128.293C159.269 130.115 158.156 131.714 155.884 131.714L159.552 135.999Z" fill="#393536"/>
<path d="M152.067 130.946H155.749C157.561 130.946 158.364 129.842 158.379 128.275C158.393 126.965 157.561 125.605 155.839 125.605H152.067V130.946ZM159.552 135.999H158.497L154.903 131.761H152.067V135.999H151.264V124.806H155.839C158.096 124.806 159.24 126.549 159.255 128.293C159.269 130.115 158.156 131.714 155.884 131.714L159.552 135.999Z" stroke="#393536" stroke-width="0.666667" stroke-miterlimit="10"/>
<path d="M164.397 124.805H163.611V136H164.397V124.805ZM163.58 123.574V123.512L164.693 121.592H165.658V121.608L164.292 123.574H163.58Z" fill="#393536"/>
<path d="M164.397 124.805H163.611V136H164.397V124.805ZM163.58 123.574V123.512L164.693 121.592H165.658V121.608L164.292 123.574H163.58Z" stroke="#393536" stroke-width="0.666667" stroke-miterlimit="10"/>
<path d="M176.428 126.964C175.671 125.654 174.453 125.462 173.28 125.446C172.061 125.446 170.131 125.926 170.131 127.716C170.131 129.139 171.556 129.475 173.309 129.826C175.315 130.243 177.393 130.626 177.393 133.042C177.379 135.568 175.017 136.175 173.28 136.175C171.66 136.175 169.819 135.456 169.016 133.746L169.729 133.36C170.368 134.719 172.003 135.391 173.28 135.391C174.557 135.391 176.592 135.008 176.592 133.024C176.607 131.346 174.883 130.978 173.176 130.626C171.275 130.227 169.329 129.811 169.329 127.748C169.284 125.382 171.571 124.647 173.28 124.647C174.764 124.647 176.057 124.902 177.081 126.548L176.428 126.964Z" fill="#393536"/>
<path d="M176.428 126.964C175.671 125.654 174.453 125.462 173.28 125.446C172.061 125.446 170.131 125.926 170.131 127.716C170.131 129.139 171.556 129.475 173.309 129.826C175.315 130.243 177.393 130.626 177.393 133.042C177.379 135.568 175.017 136.175 173.28 136.175C171.66 136.175 169.819 135.456 169.016 133.746L169.729 133.36C170.368 134.719 172.003 135.391 173.28 135.391C174.557 135.391 176.592 135.008 176.592 133.024C176.607 131.346 174.883 130.978 173.176 130.626C171.275 130.227 169.329 129.811 169.329 127.748C169.284 125.382 171.571 124.647 173.28 124.647C174.764 124.647 176.057 124.902 177.081 126.548L176.428 126.964Z" stroke="#393536" stroke-width="0.666667" stroke-miterlimit="10"/>
<path d="M184.748 125.589H180.991V124.821H189.307V125.589H185.551V136H184.748V125.589Z" fill="#393536"/>
<path d="M184.748 125.589H180.991V124.821H189.307V125.589H185.551V136H184.748V125.589Z" stroke="#393536" stroke-width="0.666667" stroke-miterlimit="10"/>
<path d="M193.542 124.805H194.329V136H193.542V124.805Z" fill="#393536" stroke="#393536" stroke-width="0.666667" stroke-miterlimit="10"/>
<path d="M207.906 134.449C206.866 135.569 205.485 136.129 204.118 136.129C200.614 136.129 198.788 133.489 198.772 130.467C198.742 127.477 200.554 124.678 204.118 124.678C205.485 124.678 206.866 125.238 207.906 126.358L207.357 126.867C206.465 125.91 205.293 125.446 204.118 125.446C201.089 125.446 199.529 127.749 199.545 130.434C199.574 133.058 201.118 135.327 204.118 135.327C205.293 135.327 206.481 134.847 207.372 133.905L207.906 134.449Z" fill="#393536"/>
<path d="M207.906 134.449C206.866 135.569 205.485 136.129 204.118 136.129C200.614 136.129 198.788 133.489 198.772 130.467C198.742 127.477 200.554 124.678 204.118 124.678C205.485 124.678 206.866 125.238 207.906 126.358L207.357 126.867C206.465 125.91 205.293 125.446 204.118 125.446C201.089 125.446 199.529 127.749 199.545 130.434C199.574 133.058 201.118 135.327 204.118 135.327C205.293 135.327 206.481 134.847 207.372 133.905L207.906 134.449Z" stroke="#393536" stroke-width="0.666667" stroke-miterlimit="10"/>
<path d="M218.841 132.449L216.049 125.637L213.257 132.449H218.841ZM220.297 135.999L219.153 133.249H212.945L211.815 135.999H210.954L215.618 124.806H216.494L221.158 135.999H220.297Z" fill="#393536"/>
<path d="M218.841 132.449L216.049 125.637L213.257 132.449H218.841ZM220.297 135.999L219.153 133.249H212.945L211.815 135.999H210.954L215.618 124.806H216.494L221.158 135.999H220.297Z" stroke="#393536" stroke-width="0.666667" stroke-miterlimit="10"/>
<path fill-rule="evenodd" clip-rule="evenodd" d="M176.561 25.0464C176.339 24.6197 188.679 23.0344 189.944 23.0957C209.033 24.0157 221.451 41.1904 239.045 46.3824C244.175 47.8957 249.403 45.3677 251.069 40.2864C253.156 33.9197 248.045 28.8037 242.493 26.4197C241.941 26.1824 241.347 26.005 240.859 25.6717C239.109 24.4784 237.533 23.073 237.683 20.7277C237.831 18.377 239.715 17.4837 241.573 16.7344C244.569 15.525 247.545 16.0424 250.319 17.357C258.36 21.169 264.789 26.6224 265.907 36.0157C267.449 48.989 258.904 59.6637 245.569 60.5997C233.06 61.4784 223.956 55.7504 216.176 46.9917C205.888 35.409 193.651 27.5224 177.891 25.9797C177.475 25.9397 177.028 25.933 176.561 25.0464Z" fill="#37AB9C"/>
<path fill-rule="evenodd" clip-rule="evenodd" d="M171.538 30.019C176.574 30.1004 180.751 30.635 184.05 33.9804C187.246 37.223 186.571 41.7937 182.449 43.6804C178.941 45.2857 175.191 45.7764 171.397 45.2257C164.762 44.2657 158.161 43.3737 151.49 44.9817C148.211 45.7724 145.078 46.823 142.243 48.7004C141.439 49.2324 140.398 50.2404 139.522 49.2657C138.654 48.2964 139.775 47.3524 140.353 46.587C148.329 35.995 158.89 30.3484 171.538 30.019Z" fill="#80CC28"/>
<path fill-rule="evenodd" clip-rule="evenodd" d="M207.044 16.6525C212.648 16.4112 218.186 16.9858 223.655 18.1538C226.967 18.8618 230.062 20.1112 232.483 22.6192C234.55 24.7605 235.566 27.3312 235.512 30.3072C235.442 34.1978 232.775 36.2632 229.003 35.4205C226.506 34.8632 224.367 33.5952 222.404 32.0592C214.963 26.2418 206.594 22.4858 197.375 20.5565C196.956 20.4698 196.527 20.3965 196.126 20.2525C195.146 19.9032 193.983 19.4885 194.138 18.2632C194.267 17.2392 195.472 17.3578 196.272 17.2218C199.838 16.6138 203.438 16.5365 207.044 16.6525Z" fill="#80CC28"/>
<path fill-rule="evenodd" clip-rule="evenodd" d="M192.274 8.66742C192.421 12.1834 190.589 14.9981 187.918 17.3581C186.174 18.8981 184.176 20.0688 182.038 21.0114C176.734 23.3528 171.136 24.5994 165.446 25.4928C164.513 25.6394 163.2 26.1381 162.926 24.6061C162.706 23.3688 163.869 23.1714 164.736 22.8194C169.756 20.7701 174.649 18.5234 178.512 14.5314C181.238 11.7154 181.072 9.63676 180.208 6.14476C179.138 1.83409 181.964 -0.232577 186.213 0.020756C190.804 0.294089 192.27 4.58609 192.274 8.66742Z" fill="#37AB9C"/>
</svg>
