<svg width="261" height="116" viewBox="0 0 261 116" fill="none" xmlns="http://www.w3.org/2000/svg">
<path d="M18.3648 101.555C22.1248 101.555 25.6568 100.505 28.9568 98.4021C32.2568 96.3008 35.2328 93.6634 37.8808 90.4888C40.5288 87.3154 42.7742 83.8954 44.6155 80.2261C46.4582 76.5581 47.7822 73.1381 48.5888 69.9648C49.3942 66.7901 49.6422 64.1541 49.3368 62.0514C49.0302 59.9488 48.0315 58.8968 46.3435 58.8968C45.2675 58.8968 43.7528 59.5568 41.7955 60.8754C39.8382 62.1941 37.8608 63.6794 35.8662 65.3261C34.4075 67.5528 33.1208 69.5514 32.0088 71.3234C30.8955 73.0954 29.9168 74.6008 29.0728 75.8368C28.1515 77.3221 27.3062 78.5981 26.5395 79.6701C25.0808 82.0608 23.6608 84.4501 22.2795 86.8408C21.0515 88.9021 19.7648 91.1474 18.4222 93.5808C17.0782 96.0114 15.8688 98.3408 14.7955 100.565C15.6395 101.226 16.8288 101.555 18.3648 101.555ZM75.1115 71.7941C75.5728 71.1328 76.0902 70.7208 76.6662 70.5541C77.2422 70.3888 77.7208 70.4301 78.1048 70.6768C78.4888 70.9248 78.6981 71.3808 78.7381 72.0421C78.7768 72.7048 78.4888 73.5288 77.8755 74.5221C77.4902 75.1848 76.4355 76.6728 74.7088 78.9861C72.9808 81.3021 70.7941 83.9888 68.1461 87.0461C65.4981 90.1061 62.4648 93.3074 59.0502 96.6568C55.6342 100.005 52.0248 103.085 48.2248 105.895C44.4248 108.706 40.5088 111.041 36.4795 112.902C32.4488 114.761 28.5155 115.691 24.6755 115.691L24.7915 115.442C23.3302 115.359 22.0262 114.982 20.8742 114.315C19.7235 113.649 18.6675 112.793 17.7088 111.75C16.7475 110.707 15.8648 109.583 15.0582 108.373C14.2528 107.163 13.5035 105.934 12.8128 104.682C12.5835 105.178 12.2968 105.881 11.9542 106.79C11.6128 107.701 11.2515 108.631 10.8702 109.581C10.4888 110.531 10.1648 111.378 9.89816 112.122C9.63282 112.866 9.49949 113.362 9.49949 113.61C9.49949 114.851 9.03816 115.449 8.11682 115.409C7.19682 115.367 6.17816 114.851 5.06616 113.859C3.95282 112.866 2.93682 111.502 2.01549 109.766C1.09416 108.03 0.634155 106.13 0.634155 104.065C0.634155 101.918 1.72749 98.5768 3.91549 94.0381C6.10216 89.5008 8.84615 84.3234 12.1475 78.5074C15.4475 72.6914 19.0155 66.5221 22.8555 59.9994C26.6928 53.4768 30.2622 47.1781 33.5635 41.1021C36.8622 35.0261 39.6075 29.4674 41.7955 24.4234C43.9835 19.3821 45.0768 15.4541 45.0768 12.6421C45.0768 11.9821 45.6448 11.7968 46.7862 12.0848C47.9248 12.3754 49.1781 13.0768 50.5461 14.1928C51.9128 15.3088 53.1661 16.8394 54.3061 18.7808C55.4448 20.7248 56.0155 22.9781 56.0155 25.5394C56.0155 26.7794 55.5915 28.4741 54.7501 30.6234C53.9088 32.7741 52.8368 35.1714 51.5328 37.8154C50.2315 40.4634 48.7555 43.2941 47.1102 46.3101C45.4622 49.3288 43.7955 52.2434 42.1128 55.0528C44.2168 54.1434 46.2755 53.6888 48.2848 53.6888C49.4355 53.6888 50.7208 53.8128 52.1422 54.0608C53.5608 54.3088 54.9048 54.9101 56.1715 55.8594C57.4382 56.8101 58.4928 58.2154 59.3368 60.0754C60.1808 61.9354 60.6048 64.5194 60.6048 67.8261C60.6048 70.8021 60.2395 73.7994 59.5101 76.8154C58.7808 79.8341 57.7835 82.8101 56.5168 85.7448C55.2502 88.6794 53.7542 91.4914 52.0262 94.1768C50.2995 96.8634 48.4755 99.3648 46.5582 101.679C49.0902 99.8608 51.7195 97.7528 54.4448 95.3554C57.1688 92.9581 59.7982 90.4568 62.3315 87.8528C64.8648 85.2488 67.2248 82.5821 69.4128 79.8541C71.5995 77.1261 73.4995 74.4408 75.1115 71.7941" fill="#393536"/>
<path d="M74.09 115.444C71.9406 115.444 70.2126 114.928 68.9086 113.894C67.6033 112.861 66.586 111.6 65.858 110.112C65.1273 108.624 64.6486 106.992 64.4193 105.213C64.1886 103.436 64.0726 101.804 64.0726 100.314C64.0726 98.5796 64.6673 96.0983 65.858 92.8743C67.0473 89.6503 68.6206 85.9729 70.578 81.8383C72.5353 77.7049 74.7606 73.2196 77.2566 68.3836C79.75 63.5476 82.3033 58.6489 84.9126 53.6889C87.522 48.7289 90.074 43.8303 92.57 38.9943C95.0633 34.1583 97.29 29.6743 99.2473 25.5396C101.205 21.4063 102.778 17.7489 103.969 14.5649C105.158 11.3836 105.753 8.96626 105.753 7.31026C105.753 6.40226 106.322 5.98893 107.462 6.07026C108.601 6.15426 109.855 6.75293 111.222 7.86893C112.59 8.98493 113.841 10.5969 114.982 12.7049C116.121 14.8129 116.691 17.4383 116.691 20.5796C116.691 22.1503 115.987 24.6103 114.583 27.9583C113.178 31.3063 111.335 35.1929 109.057 39.6143C106.777 44.0383 104.217 48.8329 101.378 53.9996C98.5366 59.1663 95.7166 64.3129 92.9153 69.4383C90.1126 74.5649 87.4646 79.5036 84.9713 84.2556C82.4753 89.0116 80.4406 93.2276 78.8686 96.9049C77.294 100.584 76.3353 103.52 75.99 105.709C75.6446 107.901 76.162 108.996 77.5446 108.996C78.3886 108.996 80.0766 107.798 82.61 105.4C85.1433 103.002 88.022 99.9649 91.246 96.2849C94.47 92.6076 97.786 88.5556 101.201 84.1329C104.617 79.7103 107.575 75.4329 110.083 71.2983C110.461 70.6369 110.935 70.2023 111.506 69.9956C112.075 69.7903 112.55 69.8089 112.931 70.0569C113.311 70.3049 113.519 70.7609 113.558 71.4209C113.595 72.0836 113.311 72.9103 112.702 73.9023C112.323 74.5649 111.355 76.0529 109.797 78.3663C108.239 80.6809 106.313 83.3689 104.017 86.4263C101.719 89.4849 99.19 92.7316 96.426 96.1609C93.6633 99.5916 90.918 102.733 88.194 105.585C85.4686 108.437 82.878 110.794 80.4233 112.653C77.9646 114.514 75.8553 115.444 74.09 115.444Z" fill="#393536"/>
<path d="M131.428 115.444C129.354 115.444 127.608 114.658 126.189 113.088C124.768 111.518 123.732 109.658 123.08 107.508C122.428 105.36 122.197 103.105 122.389 100.749C122.58 98.3929 123.253 96.3889 124.404 94.7356C121.793 98.6223 119.222 102.093 116.69 105.15C115.614 106.474 114.502 107.754 113.35 108.996C112.2 110.236 111.048 111.332 109.897 112.281C108.745 113.233 107.632 113.998 106.558 114.576C105.482 115.154 104.522 115.444 103.678 115.444C102.45 115.444 101.241 115.19 100.053 114.682C98.8612 114.174 97.8078 113.368 96.8865 112.268C95.9652 111.168 95.2545 109.79 94.7558 108.134C94.2558 106.476 94.0838 104.45 94.2385 102.05C94.3145 100.646 94.8892 98.7463 95.9652 96.3476C97.0385 93.9503 98.3638 91.3049 99.9372 88.4116C101.51 85.5183 103.2 82.4583 105.004 79.2343C106.806 76.0103 108.496 72.8689 110.069 69.8089C111.642 66.7516 112.966 63.8783 114.041 61.1916C115.116 58.5049 115.729 56.1689 115.884 54.1849C115.96 53.4409 116.554 53.1516 117.669 53.3169C118.781 53.4836 119.972 54.0609 121.237 55.0529C122.505 56.0449 123.636 57.4303 124.634 59.2076C125.63 60.9863 126.054 63.1129 125.901 65.5929C125.746 67.2489 124.98 69.4996 123.598 72.3516C122.216 75.2036 120.565 78.2849 118.648 81.5889C116.728 84.8983 114.75 88.2463 112.717 91.6356C110.682 95.0263 108.936 98.1036 107.478 100.873C106.02 103.644 105.041 105.896 104.542 107.632C104.042 109.366 104.446 110.236 105.752 110.236C106.212 110.236 107.478 109.182 109.552 107.074C111.624 104.966 114.08 102.217 116.92 98.8263C119.76 95.4383 122.772 91.6556 125.958 87.4796C129.142 83.3063 132.098 79.1316 134.824 74.9556C137.548 70.7823 139.833 66.8556 141.674 63.1756C143.517 59.4983 144.513 56.4596 144.669 54.0609C144.744 53.3169 145.301 53.1116 146.338 53.4409C147.374 53.7729 148.506 54.4956 149.734 55.6103C150.961 56.7263 152.037 58.2569 152.958 60.1996C153.88 62.1423 154.262 64.3529 154.109 66.8329C154.033 68.4876 153.304 70.7209 151.922 73.5289C150.54 76.3409 148.928 79.3583 147.086 82.5823C145.244 85.8063 143.324 89.0729 141.329 92.3783C139.333 95.6863 137.605 98.6623 136.149 101.306C134.689 103.954 133.71 106.124 133.212 107.817C132.712 109.513 133.04 110.36 134.19 110.36C134.804 110.36 135.784 109.802 137.126 108.686C138.469 107.57 140.062 106.04 141.905 104.097C143.748 102.156 145.762 99.9023 147.95 97.3396C150.137 94.7769 152.362 92.0689 154.628 89.2169C156.89 86.3636 159.078 83.4716 161.19 80.5356C163.301 77.6023 165.201 74.7289 166.89 71.9169C167.273 71.2569 167.753 70.8436 168.329 70.6769C168.905 70.5129 169.384 70.5543 169.768 70.8023C170.152 71.0503 170.362 71.4836 170.401 72.1036C170.44 72.7236 170.152 73.5289 169.538 74.5223C169.153 75.1849 168.174 76.6516 166.602 78.9236C165.028 81.1983 163.128 83.8649 160.902 86.9223C158.676 89.9809 156.22 93.1649 153.534 96.4716C150.846 99.7783 148.16 102.838 145.474 105.646C142.786 108.46 140.216 110.794 137.76 112.653C135.302 114.514 133.192 115.444 131.428 115.444Z" fill="#393536"/>
<path d="M197.171 100.563C196.325 100.563 195.539 100.398 194.811 100.067C194.08 99.738 193.487 99.366 193.025 98.9513C192.565 99.614 192.143 100.15 191.759 100.563C191.604 100.646 191.451 100.811 191.299 101.059C191.144 101.226 190.972 101.43 190.781 101.679C190.588 101.926 190.377 102.217 190.147 102.546C187.384 105.69 184.391 108.459 181.167 110.855C177.943 113.254 174.719 114.701 171.495 115.197C171.417 115.279 171.303 115.319 171.149 115.319C170.841 115.319 170.649 115.363 170.573 115.443H169.423C168.271 115.443 166.984 115.238 165.565 114.823C164.144 114.411 162.803 113.646 161.535 112.53C160.269 111.414 159.213 109.843 158.369 107.817C157.524 105.793 157.103 103.126 157.103 99.818C157.103 96.098 157.659 92.378 158.772 88.658C159.884 84.938 161.381 81.3846 163.263 77.994C165.143 74.6046 167.292 71.422 169.711 68.446C172.128 65.47 174.621 62.886 177.195 60.6953C179.765 58.506 182.317 56.7886 184.851 55.5486C187.384 54.3086 189.687 53.6886 191.759 53.6886C194.983 53.6886 197.747 54.662 200.049 56.6033C202.352 58.546 204.232 60.8406 205.691 63.4846C205.921 63.8993 205.691 64.4366 205 65.0966C204.309 65.7593 202.657 66.09 200.049 66.09C196.9 66.09 193.753 67.186 190.608 69.3753C187.46 71.5673 184.543 74.2953 181.857 77.5606C179.169 80.826 176.809 84.3606 174.776 88.162C172.741 91.966 171.188 95.4993 170.113 98.7646C169.037 102.033 168.559 104.759 168.673 106.949C168.789 109.141 169.691 110.235 171.38 110.235C173.067 110.235 175.025 109.491 177.252 108.003C179.477 106.515 181.587 104.821 183.584 102.919C185.963 100.77 188.343 98.33 190.723 95.602C190.493 95.026 190.3 94.322 190.147 93.494C189.992 92.834 189.877 92.0486 189.801 91.1393C189.725 90.23 189.687 89.198 189.687 88.038C189.687 85.558 190.28 83.45 191.472 81.714C192.66 79.978 193.965 78.842 195.387 78.3046C196.805 77.7673 198.109 77.9313 199.301 78.7993C200.489 79.6686 201.085 81.3846 201.085 83.946C201.085 85.1046 200.585 86.634 199.588 88.5353C198.589 90.4366 197.171 92.71 195.328 95.3553C195.481 95.522 195.807 95.7073 196.308 95.9126C196.805 96.1206 197.208 96.222 197.516 96.222C198.897 96.222 200.28 95.6646 201.661 94.5486C203.043 93.4326 204.539 91.8206 206.151 89.7113C207.763 87.6033 209.508 85.042 211.391 82.0246C213.271 79.0073 215.363 75.5966 217.665 71.794C218.048 71.1326 218.529 70.6993 219.104 70.4913C219.68 70.286 220.159 70.306 220.544 70.554C220.927 70.802 221.137 71.2566 221.177 71.918C221.215 72.5806 220.927 73.406 220.313 74.398C219.928 75.0606 219.335 76.1553 218.529 77.6833C217.723 79.214 216.724 80.9286 215.535 82.83C214.344 84.7326 213.02 86.7366 211.563 88.8446C210.104 90.9526 208.588 92.874 207.015 94.61C205.441 96.3473 203.809 97.7726 202.121 98.8886C200.432 100.005 198.783 100.563 197.171 100.563Z" fill="#393536"/>
<path fill-rule="evenodd" clip-rule="evenodd" d="M170.561 25.0464C170.339 24.6197 182.679 23.0343 183.944 23.0957C203.033 24.0157 215.451 41.1903 233.045 46.3823C238.175 47.8957 243.403 45.3677 245.069 40.2863C247.156 33.9197 242.045 28.8037 236.493 26.4197C235.941 26.1823 235.347 26.005 234.859 25.6717C233.109 24.4784 231.533 23.073 231.683 20.7277C231.831 18.377 233.715 17.4837 235.573 16.7343C238.569 15.525 241.545 16.0423 244.319 17.357C252.36 21.169 258.789 26.6223 259.907 36.0157C261.449 48.989 252.904 59.6637 239.569 60.5997C227.06 61.4783 217.956 55.7503 210.176 46.9917C199.888 35.409 187.651 27.5223 171.891 25.9797C171.475 25.9397 171.028 25.933 170.561 25.0464Z" fill="#37AB9C"/>
<path fill-rule="evenodd" clip-rule="evenodd" d="M165.538 30.019C170.574 30.1004 174.751 30.635 178.05 33.9804C181.246 37.223 180.571 41.7937 176.449 43.6804C172.941 45.2857 169.191 45.7764 165.397 45.2257C158.762 44.2657 152.161 43.3737 145.49 44.9817C142.211 45.7724 139.078 46.823 136.243 48.7004C135.439 49.2324 134.398 50.2404 133.522 49.2657C132.654 48.2964 133.775 47.3524 134.353 46.587C142.329 35.995 152.89 30.3484 165.538 30.019Z" fill="#80CC28"/>
<path fill-rule="evenodd" clip-rule="evenodd" d="M201.044 16.6525C206.648 16.4112 212.186 16.9858 217.655 18.1538C220.967 18.8618 224.062 20.1112 226.483 22.6192C228.55 24.7605 229.566 27.3312 229.512 30.3072C229.442 34.1978 226.775 36.2632 223.003 35.4205C220.506 34.8632 218.367 33.5952 216.404 32.0592C208.963 26.2418 200.594 22.4858 191.375 20.5565C190.956 20.4698 190.527 20.3965 190.126 20.2525C189.146 19.9032 187.983 19.4885 188.138 18.2632C188.267 17.2392 189.472 17.3578 190.272 17.2218C193.838 16.6138 197.438 16.5365 201.044 16.6525Z" fill="#80CC28"/>
<path fill-rule="evenodd" clip-rule="evenodd" d="M186.274 8.66743C186.421 12.1834 184.589 14.9981 181.918 17.3581C180.174 18.8981 178.176 20.0688 176.038 21.0114C170.734 23.3528 165.136 24.5994 159.446 25.4928C158.513 25.6394 157.2 26.1381 156.926 24.6061C156.706 23.3688 157.869 23.1714 158.736 22.8194C163.756 20.7701 168.649 18.5234 172.512 14.5314C175.238 11.7154 175.072 9.63676 174.208 6.14477C173.138 1.8341 175.964 -0.23257 180.213 0.0207637C184.804 0.294097 186.27 4.5861 186.274 8.66743Z" fill="#37AB9C"/>
</svg>
