<svg width="260" height="116" viewBox="0 0 260 116" fill="none" xmlns="http://www.w3.org/2000/svg">
<path d="M17.7307 101.555C21.4907 101.555 25.0227 100.505 28.3227 98.4021C31.6227 96.3008 34.5987 93.6634 37.2467 90.4888C39.8947 87.3154 42.14 83.8954 43.9813 80.2261C45.824 76.5581 47.148 73.1381 47.9547 69.9648C48.76 66.7901 49.008 64.1541 48.7027 62.0514C48.396 59.9488 47.3973 58.8968 45.7093 58.8968C44.6333 58.8968 43.1187 59.5568 41.1613 60.8754C39.204 62.1941 37.2267 63.6794 35.232 65.3261C33.7733 67.5528 32.4867 69.5514 31.3747 71.3234C30.2613 73.0954 29.2827 74.6008 28.4387 75.8368C27.5173 77.3221 26.672 78.5981 25.9053 79.6701C24.4467 82.0608 23.0267 84.4501 21.6453 86.8408C20.4173 88.9021 19.1307 91.1474 17.788 93.5808C16.444 96.0114 15.2347 98.3408 14.1613 100.565C15.0053 101.226 16.1947 101.555 17.7307 101.555ZM74.4773 71.7941C74.9387 71.1328 75.456 70.7208 76.032 70.5541C76.608 70.3888 77.0867 70.4301 77.4707 70.6768C77.8547 70.9248 78.064 71.3808 78.104 72.0421C78.1427 72.7048 77.8547 73.5288 77.2413 74.5221C76.856 75.1848 75.8013 76.6728 74.0747 78.9861C72.3467 81.3021 70.16 83.9888 67.512 87.0461C64.864 90.1061 61.8307 93.3074 58.416 96.6568C55 100.005 51.3907 103.085 47.5907 105.895C43.7907 108.706 39.8747 111.041 35.8453 112.902C31.8147 114.761 27.8813 115.691 24.0413 115.691L24.1573 115.442C22.696 115.359 21.392 114.982 20.24 114.315C19.0893 113.649 18.0333 112.793 17.0747 111.75C16.1133 110.707 15.2307 109.583 14.424 108.373C13.6187 107.163 12.8693 105.934 12.1787 104.682C11.9493 105.178 11.6627 105.881 11.32 106.79C10.9787 107.701 10.6173 108.631 10.236 109.581C9.85467 110.531 9.53067 111.378 9.264 112.122C8.99867 112.866 8.86533 113.362 8.86533 113.61C8.86533 114.851 8.404 115.449 7.48267 115.409C6.56267 115.367 5.544 114.851 4.432 113.859C3.31867 112.866 2.30267 111.502 1.38133 109.766C0.46 108.03 0 106.13 0 104.065C0 101.918 1.09333 98.5768 3.28133 94.0381C5.468 89.5008 8.212 84.3234 11.5133 78.5074C14.8133 72.6914 18.3813 66.5221 22.2213 59.9994C26.0587 53.4768 29.628 47.1781 32.9293 41.1021C36.228 35.0261 38.9733 29.4674 41.1613 24.4234C43.3493 19.3821 44.4427 15.4541 44.4427 12.6421C44.4427 11.9821 45.0107 11.7968 46.152 12.0848C47.2907 12.3755 48.544 13.0768 49.912 14.1928C51.2787 15.3088 52.532 16.8394 53.672 18.7808C54.8107 20.7248 55.3813 22.9781 55.3813 25.5394C55.3813 26.7794 54.9573 28.4741 54.116 30.6234C53.2747 32.7741 52.2027 35.1714 50.8987 37.8154C49.5973 40.4634 48.1213 43.2941 46.476 46.3101C44.828 49.3288 43.1613 52.2434 41.4787 55.0528C43.5827 54.1434 45.6413 53.6888 47.6507 53.6888C48.8013 53.6888 50.0867 53.8128 51.508 54.0608C52.9267 54.3088 54.2707 54.9101 55.5373 55.8594C56.804 56.8101 57.8587 58.2154 58.7027 60.0754C59.5467 61.9354 59.9707 64.5194 59.9707 67.8261C59.9707 70.8021 59.6053 73.7994 58.876 76.8154C58.1467 79.8341 57.1493 82.8101 55.8827 85.7448C54.616 88.6794 53.12 91.4914 51.392 94.1768C49.6653 96.8634 47.8413 99.3648 45.924 101.679C48.456 99.8608 51.0853 97.7528 53.8107 95.3554C56.5347 92.9581 59.164 90.4568 61.6973 87.8528C64.2307 85.2488 66.5907 82.5821 68.7787 79.8541C70.9653 77.1261 72.8653 74.4408 74.4773 71.7941" fill="white"/>
<path d="M73.4558 115.444C71.3065 115.444 69.5785 114.928 68.2745 113.894C66.9691 112.861 65.9518 111.6 65.2238 110.112C64.4931 108.624 64.0145 106.992 63.7851 105.213C63.5545 103.436 63.4385 101.804 63.4385 100.314C63.4385 98.5796 64.0331 96.0983 65.2238 92.8743C66.4131 89.6503 67.9865 85.9729 69.9438 81.8383C71.9011 77.7049 74.1265 73.2196 76.6225 68.3836C79.1158 63.5476 81.6691 58.6489 84.2785 53.6889C86.8878 48.7289 89.4398 43.8303 91.9358 38.9943C94.4291 34.1583 96.6558 29.6743 98.6131 25.5396C100.57 21.4063 102.144 17.7489 103.334 14.5649C104.524 11.3836 105.118 8.96627 105.118 7.31027C105.118 6.40227 105.688 5.98894 106.828 6.07027C107.966 6.15427 109.221 6.75293 110.588 7.86893C111.956 8.98493 113.206 10.5969 114.348 12.7049C115.486 14.8129 116.057 17.4383 116.057 20.5796C116.057 22.1503 115.353 24.6103 113.949 27.9583C112.544 31.3063 110.701 35.1929 108.422 39.6143C106.142 44.0383 103.582 48.8329 100.744 53.9996C97.9025 59.1663 95.0825 64.3129 92.2811 69.4383C89.4785 74.5649 86.8305 79.5036 84.3371 84.2556C81.8411 89.0116 79.8065 93.2276 78.2345 96.9049C76.6598 100.584 75.7011 103.52 75.3558 105.709C75.0105 107.901 75.5278 108.996 76.9105 108.996C77.7545 108.996 79.4425 107.798 81.9758 105.4C84.5091 103.002 87.3878 99.9649 90.6118 96.2849C93.8358 92.6076 97.1518 88.5556 100.566 84.1329C103.982 79.7103 106.941 75.4329 109.449 71.2983C109.826 70.6369 110.301 70.2023 110.872 69.9956C111.441 69.7903 111.916 69.8089 112.297 70.0569C112.677 70.3049 112.885 70.7609 112.924 71.4209C112.961 72.0836 112.677 72.9103 112.068 73.9023C111.689 74.5649 110.721 76.0529 109.162 78.3663C107.605 80.6809 105.678 83.3689 103.382 86.4263C101.085 89.4849 98.5558 92.7316 95.7918 96.1609C93.0291 99.5916 90.2838 102.733 87.5598 105.585C84.8345 108.437 82.2438 110.794 79.7891 112.653C77.3305 114.514 75.2211 115.444 73.4558 115.444Z" fill="white"/>
<path d="M130.794 115.444C128.72 115.444 126.974 114.658 125.555 113.088C124.134 111.518 123.098 109.658 122.446 107.508C121.794 105.36 121.563 103.105 121.755 100.749C121.946 98.3929 122.619 96.3889 123.77 94.7356C121.159 98.6223 118.588 102.093 116.056 105.15C114.98 106.474 113.868 107.754 112.716 108.996C111.566 110.236 110.414 111.332 109.263 112.281C108.111 113.233 106.998 113.998 105.924 114.576C104.848 115.154 103.888 115.444 103.044 115.444C101.816 115.444 100.607 115.19 99.419 114.682C98.227 114.174 97.1737 113.368 96.2523 112.268C95.331 111.168 94.6203 109.79 94.1217 108.134C93.6217 106.476 93.4497 104.45 93.6043 102.05C93.6803 100.646 94.255 98.7463 95.331 96.3476C96.4043 93.9503 97.7297 91.3049 99.303 88.4116C100.876 85.5183 102.566 82.4583 104.37 79.2343C106.172 76.0103 107.862 72.8689 109.435 69.8089C111.008 66.7516 112.332 63.8783 113.407 61.1916C114.482 58.5049 115.095 56.1689 115.25 54.1849C115.326 53.4409 115.92 53.1516 117.035 53.3169C118.147 53.4836 119.338 54.0609 120.603 55.0529C121.871 56.0449 123.002 57.4303 124 59.2076C124.996 60.9863 125.42 63.1129 125.267 65.5929C125.112 67.2489 124.346 69.4996 122.964 72.3516C121.582 75.2036 119.931 78.2849 118.014 81.5889C116.094 84.8983 114.116 88.2463 112.083 91.6356C110.048 95.0263 108.302 98.1036 106.844 100.873C105.386 103.644 104.407 105.896 103.908 107.632C103.408 109.366 103.812 110.236 105.118 110.236C105.578 110.236 106.844 109.182 108.918 107.074C110.99 104.966 113.446 102.217 116.286 98.8263C119.126 95.4383 122.138 91.6556 125.324 87.4796C128.508 83.3063 131.464 79.1316 134.19 74.9556C136.914 70.7823 139.199 66.8556 141.04 63.1756C142.883 59.4983 143.879 56.4596 144.035 54.0609C144.11 53.3169 144.667 53.1116 145.704 53.4409C146.74 53.7729 147.872 54.4956 149.1 55.6103C150.327 56.7263 151.403 58.2569 152.324 60.1996C153.246 62.1423 153.628 64.3529 153.475 66.8329C153.399 68.4876 152.67 70.7209 151.288 73.5289C149.906 76.3409 148.294 79.3583 146.452 82.5823C144.61 85.8063 142.69 89.0729 140.695 92.3783C138.699 95.6863 136.971 98.6623 135.515 101.306C134.055 103.954 133.076 106.124 132.578 107.817C132.078 109.513 132.406 110.36 133.556 110.36C134.17 110.36 135.15 109.802 136.492 108.686C137.835 107.57 139.428 106.04 141.271 104.097C143.114 102.156 145.128 99.9023 147.316 97.3396C149.503 94.7769 151.728 92.0689 153.994 89.2169C156.256 86.3636 158.444 83.4716 160.556 80.5356C162.667 77.6023 164.567 74.7289 166.256 71.9169C166.639 71.2569 167.119 70.8436 167.695 70.6769C168.271 70.5129 168.75 70.5543 169.134 70.8023C169.518 71.0503 169.728 71.4836 169.767 72.1036C169.806 72.7236 169.518 73.5289 168.904 74.5223C168.519 75.1849 167.54 76.6516 165.968 78.9236C164.394 81.1983 162.494 83.8649 160.268 86.9223C158.042 89.9809 155.586 93.1649 152.9 96.4716C150.212 99.7783 147.526 102.838 144.84 105.646C142.152 108.46 139.582 110.794 137.126 112.653C134.668 114.514 132.558 115.444 130.794 115.444Z" fill="white"/>
<path d="M196.537 100.563C195.691 100.563 194.905 100.398 194.177 100.067C193.446 99.738 192.853 99.366 192.391 98.9513C191.931 99.614 191.509 100.15 191.125 100.563C190.97 100.646 190.817 100.811 190.665 101.059C190.51 101.226 190.338 101.43 190.147 101.679C189.954 101.926 189.743 102.217 189.513 102.546C186.75 105.69 183.757 108.459 180.533 110.855C177.309 113.254 174.085 114.701 170.861 115.197C170.783 115.279 170.669 115.319 170.515 115.319C170.207 115.319 170.015 115.363 169.939 115.443H168.789C167.637 115.443 166.35 115.238 164.931 114.823C163.51 114.411 162.169 113.646 160.901 112.53C159.635 111.414 158.579 109.843 157.735 107.817C156.89 105.793 156.469 103.126 156.469 99.818C156.469 96.098 157.025 92.378 158.138 88.658C159.25 84.938 160.747 81.3846 162.629 77.994C164.509 74.6046 166.658 71.422 169.077 68.446C171.494 65.47 173.987 62.886 176.561 60.6953C179.131 58.506 181.683 56.7886 184.217 55.5486C186.75 54.3086 189.053 53.6886 191.125 53.6886C194.349 53.6886 197.113 54.662 199.415 56.6033C201.718 58.546 203.598 60.8406 205.057 63.4846C205.287 63.8993 205.057 64.4366 204.366 65.0966C203.675 65.7593 202.023 66.09 199.415 66.09C196.266 66.09 193.119 67.186 189.974 69.3753C186.826 71.5673 183.909 74.2953 181.223 77.5606C178.535 80.826 176.175 84.3606 174.142 88.162C172.107 91.966 170.554 95.4993 169.479 98.7646C168.403 102.033 167.925 104.759 168.039 106.949C168.155 109.141 169.057 110.235 170.746 110.235C172.433 110.235 174.391 109.491 176.618 108.003C178.843 106.515 180.953 104.821 182.95 102.919C185.329 100.77 187.709 98.33 190.089 95.602C189.859 95.026 189.666 94.322 189.513 93.494C189.358 92.834 189.243 92.0486 189.167 91.1393C189.091 90.23 189.053 89.198 189.053 88.038C189.053 85.558 189.646 83.45 190.838 81.714C192.026 79.978 193.331 78.842 194.753 78.3046C196.171 77.7673 197.475 77.9313 198.667 78.7993C199.855 79.6686 200.451 81.3846 200.451 83.946C200.451 85.1046 199.951 86.634 198.954 88.5353C197.955 90.4366 196.537 92.71 194.694 95.3553C194.847 95.522 195.173 95.7073 195.674 95.9126C196.171 96.1206 196.574 96.222 196.882 96.222C198.263 96.222 199.646 95.6646 201.027 94.5486C202.409 93.4326 203.905 91.8206 205.517 89.7113C207.129 87.6033 208.874 85.042 210.757 82.0246C212.637 79.0073 214.729 75.5966 217.031 71.794C217.414 71.1326 217.895 70.6993 218.47 70.4913C219.046 70.286 219.525 70.306 219.91 70.554C220.293 70.802 220.503 71.2566 220.543 71.918C220.581 72.5806 220.293 73.406 219.679 74.398C219.294 75.0606 218.701 76.1553 217.895 77.6833C217.089 79.214 216.09 80.9286 214.901 82.83C213.71 84.7326 212.386 86.7366 210.929 88.8446C209.47 90.9526 207.954 92.874 206.381 94.61C204.807 96.3473 203.175 97.7726 201.487 98.8886C199.798 100.005 198.149 100.563 196.537 100.563Z" fill="white"/>
<path fill-rule="evenodd" clip-rule="evenodd" d="M169.927 25.0464C169.705 24.6197 182.045 23.0344 183.31 23.0957C202.399 24.0157 214.816 41.1904 232.411 46.3824C237.54 47.8957 242.768 45.3677 244.435 40.2864C246.522 33.9197 241.411 28.8037 235.859 26.4197C235.307 26.1824 234.712 26.005 234.224 25.6717C232.475 24.4784 230.899 23.073 231.048 20.7277C231.196 18.377 233.08 17.4837 234.939 16.7344C237.935 15.525 240.911 16.0424 243.684 17.357C251.726 21.169 258.155 26.6224 259.273 36.0157C260.815 48.989 252.27 59.6637 238.935 60.5997C226.426 61.4784 217.322 55.7504 209.542 46.9917C199.254 35.409 187.017 27.5224 171.257 25.9797C170.841 25.9397 170.394 25.933 169.927 25.0464Z" fill="#37AB9C"/>
<path fill-rule="evenodd" clip-rule="evenodd" d="M164.904 30.019C169.94 30.1003 174.117 30.635 177.416 33.9803C180.612 37.223 179.937 41.7937 175.814 43.6803C172.306 45.2857 168.557 45.7763 164.762 45.2257C158.128 44.2657 151.526 43.3737 144.856 44.9817C141.577 45.7723 138.444 46.823 135.609 48.7003C134.805 49.2323 133.764 50.2403 132.888 49.2657C132.02 48.2963 133.141 47.3523 133.718 46.587C141.694 35.995 152.256 30.3483 164.904 30.019Z" fill="#80CC28"/>
<path fill-rule="evenodd" clip-rule="evenodd" d="M200.41 16.6525C206.014 16.4111 211.552 16.9858 217.021 18.1538C220.333 18.8618 223.428 20.1111 225.849 22.6191C227.916 24.7605 228.932 27.3312 228.878 30.3072C228.808 34.1978 226.141 36.2632 222.369 35.4205C219.872 34.8632 217.733 33.5952 215.77 32.0592C208.329 26.2418 199.96 22.4858 190.741 20.5565C190.322 20.4698 189.893 20.3965 189.492 20.2525C188.512 19.9031 187.349 19.4885 187.504 18.2632C187.633 17.2391 188.838 17.3578 189.638 17.2218C193.204 16.6138 196.804 16.5365 200.41 16.6525Z" fill="#80CC28"/>
<path fill-rule="evenodd" clip-rule="evenodd" d="M185.64 8.66743C185.787 12.1834 183.955 14.9981 181.284 17.3581C179.54 18.8981 177.541 20.0688 175.404 21.0114C170.1 23.3528 164.501 24.5994 158.812 25.4928C157.879 25.6394 156.565 26.1381 156.292 24.6061C156.072 23.3688 157.235 23.1714 158.101 22.8194C163.121 20.7701 168.015 18.5234 171.877 14.5314C174.604 11.7154 174.437 9.63676 173.573 6.14477C172.504 1.8341 175.329 -0.23257 179.579 0.0207637C184.169 0.294097 185.636 4.5861 185.64 8.66743Z" fill="#37AB9C"/>
</svg>
